{"glyphs":{"0":{"ha":808,"x_min":54,"x_max":755,"o":"m 390 -16 q 147 112 240 -16 q 54 457 54 239 q 159 862 54 705 q 425 1018 264 1018 q 585 968 509 1018 q 708 810 661 919 q 755 539 755 701 q 654 146 755 307 q 390 -16 553 -16 m 436 21 q 581 118 515 21 q 647 416 647 216 q 575 826 647 671 q 378 982 504 982 q 226 882 289 982 q 163 579 163 782 q 237 179 163 338 q 436 21 312 21 z "},"1":{"ha":361,"x_min":46,"x_max":326,"o":"m 50 905 l 229 1017 l 240 1017 l 240 92 q 255 23 240 37 q 326 9 271 9 l 326 0 l 46 0 l 46 9 q 96 14 76 9 q 124 39 115 18 q 134 102 134 59 l 134 848 q 129 895 134 878 q 102 913 123 913 q 50 896 83 913 l 50 905 z "},"2":{"ha":753,"x_min":18,"x_max":734,"o":"m 734 157 l 689 0 l 32 0 l 32 25 q 417 414 311 246 q 522 726 522 582 q 461 913 522 848 q 311 979 401 979 q 157 925 230 979 q 45 796 84 871 l 18 810 q 168 969 87 922 q 350 1015 248 1015 q 563 935 484 1015 q 643 742 643 854 q 559 509 643 637 q 281 197 475 380 l 165 89 l 583 89 q 667 100 644 89 q 721 157 689 112 l 734 157 z "},"3":{"ha":782,"x_min":47,"x_max":697,"o":"m 97 806 l 134 940 q 266 1000 210 986 q 383 1014 322 1014 q 591 958 528 1014 q 654 825 654 901 q 605 695 654 751 q 453 587 555 639 l 453 585 q 633 489 569 570 q 697 302 697 409 q 594 76 697 165 q 355 -14 491 -14 q 191 20 262 -14 q 47 117 119 54 l 47 153 q 177 63 108 103 q 334 22 245 22 q 509 91 437 22 q 582 272 582 160 q 513 445 582 376 q 323 514 444 514 q 249 507 290 514 l 249 534 q 262 539 255 539 q 482 645 425 583 q 539 794 539 707 q 488 935 539 883 q 359 987 436 987 q 233 946 292 987 q 109 804 173 905 l 97 806 z "},"4":{"ha":753,"x_min":17,"x_max":732,"o":"m 732 357 l 549 357 l 549 102 q 561 28 549 47 q 616 9 572 9 l 635 9 l 635 0 l 347 0 l 347 9 l 366 9 q 417 17 403 9 q 436 45 431 25 q 441 100 441 64 l 441 357 l 17 357 l 505 1017 l 550 1017 l 550 414 l 667 414 q 708 418 697 414 q 720 444 718 423 l 732 444 l 732 357 m 90 412 l 441 412 l 441 880 l 439 884 l 90 412 z "},"5":{"ha":782,"x_min":35,"x_max":713,"o":"m 207 909 l 170 628 q 359 667 250 667 q 608 574 511 667 q 705 338 705 481 q 602 92 705 197 q 346 -14 498 -14 q 188 17 261 -14 q 35 110 114 47 l 35 142 q 175 67 106 96 q 317 37 243 37 q 521 120 444 37 q 599 310 599 202 q 530 483 599 414 q 342 551 461 551 q 118 496 239 551 l 182 999 l 635 999 q 676 1002 659 999 q 701 1023 692 1005 l 713 1025 l 681 911 l 207 909 z "},"6":{"ha":808,"x_min":53,"x_max":755,"o":"m 628 1017 l 635 999 q 294 803 406 950 q 172 488 182 656 l 175 485 q 300 610 224 574 q 449 647 376 647 q 667 553 578 647 q 755 323 755 460 q 658 85 755 184 q 425 -14 560 -14 q 163 106 273 -14 q 53 406 53 227 q 200 801 53 627 q 628 1017 348 974 m 379 589 q 238 529 299 589 q 178 392 178 470 q 267 144 178 262 q 471 25 356 25 q 609 85 557 25 q 661 228 661 145 q 578 472 661 356 q 379 589 496 589 z "},"7":{"ha":753,"x_min":18,"x_max":732,"o":"m 18 828 l 46 999 l 732 999 l 253 -12 l 180 -12 l 618 911 l 235 911 q 103 897 161 911 q 29 827 44 883 l 18 828 z "},"8":{"ha":808,"x_min":69,"x_max":739,"o":"m 343 524 q 214 608 245 584 q 156 678 183 632 q 129 779 129 724 q 207 944 129 871 q 425 1017 286 1017 q 623 961 553 1017 q 693 817 693 905 q 482 567 693 665 q 680 417 621 484 q 739 257 739 351 q 638 60 739 134 q 392 -14 538 -14 q 159 55 250 -14 q 69 232 69 123 q 134 390 69 324 q 343 524 199 456 m 453 583 q 591 787 591 663 q 532 925 591 870 q 386 981 472 981 q 255 942 313 981 q 197 831 197 904 q 219 752 197 785 q 322 664 241 718 q 453 583 403 610 m 386 501 l 374 509 q 236 416 299 475 q 174 269 174 357 q 248 96 174 175 q 427 17 323 17 q 578 72 507 17 q 648 215 648 127 q 602 346 648 286 q 386 501 556 407 z "},"9":{"ha":808,"x_min":53,"x_max":755,"o":"m 180 -14 l 174 5 q 426 112 340 45 q 570 285 511 178 q 636 515 628 391 l 633 518 q 516 397 591 437 q 359 357 440 357 q 142 450 231 357 q 53 681 53 543 q 149 918 53 819 q 383 1017 245 1017 q 647 897 538 1017 q 755 599 755 778 q 608 203 755 375 q 180 -14 460 31 m 429 415 q 571 475 511 415 q 631 612 631 535 q 543 858 631 736 q 338 979 454 979 q 200 918 253 979 q 147 777 147 857 q 228 533 147 650 q 429 415 309 415 z "}," ":{"ha":404,"x_min":0,"x_max":0,"o":""},"!":{"ha":232,"x_min":7,"x_max":193,"o":"m 193 999 l 158 624 q 146 544 154 587 q 130 412 139 501 q 121 290 121 323 l 121 264 l 109 264 l 83 729 q 71 899 77 836 q 53 974 64 962 q 7 986 41 986 l 7 999 l 193 999 m 189 58 q 167 6 189 27 q 115 -16 144 -16 q 64 5 87 -16 q 41 58 41 26 q 62 111 41 89 q 115 132 83 132 q 168 112 146 132 q 189 58 189 91 z "},"\"":{"ha":463,"x_min":24,"x_max":437,"o":"m 28 640 l 24 646 q 121 756 98 701 q 143 850 143 811 q 127 876 143 876 q 115 873 125 876 q 98 871 106 871 q 47 891 68 871 q 25 940 25 911 q 46 991 25 969 q 102 1014 66 1014 q 175 978 144 1014 q 205 878 205 942 q 166 749 205 806 q 28 640 127 692 m 260 640 l 254 646 q 344 742 314 687 q 374 850 374 798 q 359 876 374 876 q 347 873 357 876 q 330 871 338 871 q 279 891 300 871 q 257 940 257 911 q 278 991 257 969 q 334 1014 298 1014 q 406 978 375 1014 q 437 878 437 943 q 398 749 437 806 q 260 640 359 692 z "},"#":{"ha":694,"x_min":28,"x_max":668,"o":"m 288 647 l 461 647 l 500 935 l 566 935 l 526 647 l 668 647 l 660 583 l 517 583 l 484 330 l 627 330 l 618 267 l 473 267 l 435 -22 l 370 -22 l 408 267 l 236 267 l 196 -22 l 131 -22 l 171 267 l 28 267 l 36 330 l 179 330 l 214 583 l 75 583 l 83 647 l 222 647 l 262 935 l 328 935 l 288 647 m 452 583 l 279 583 l 244 330 l 418 330 l 452 583 z "},"$":{"ha":681,"x_min":20,"x_max":661,"o":"m 578 926 l 614 790 l 602 790 q 366 972 513 954 l 366 558 q 577 458 492 528 q 661 261 661 388 q 586 79 661 157 q 364 -12 511 1 l 364 -160 l 336 -160 l 336 -14 q 71 52 205 -14 l 20 273 l 31 273 q 150 96 67 164 q 336 21 233 28 l 338 456 q 110 594 161 512 q 58 751 58 676 q 136 926 58 852 q 338 999 213 999 l 338 1069 l 367 1069 l 367 999 q 578 926 481 987 m 338 568 l 338 974 q 184 928 248 976 q 119 791 119 880 q 135 713 119 749 q 181 649 150 677 q 263 598 212 621 q 328 571 314 574 l 338 568 m 366 447 l 364 21 q 527 82 454 21 q 599 232 599 142 q 539 365 599 317 q 366 447 479 413 z "},"%":{"ha":1114,"x_min":7,"x_max":1107,"o":"m 212 481 q 67 545 127 481 q 7 726 7 608 q 71 937 7 857 q 232 1018 134 1018 q 379 954 322 1018 q 436 770 436 890 q 372 561 436 641 q 212 481 309 481 m 235 509 q 320 558 284 509 q 355 705 355 608 q 312 918 355 845 q 210 990 269 990 q 123 944 161 990 q 86 790 86 898 q 130 586 86 664 q 235 509 174 509 m 207 0 l 860 1015 l 904 999 l 253 -17 l 207 0 m 885 -7 q 737 57 796 -7 q 677 237 677 121 q 741 448 677 367 q 904 529 805 529 q 1051 464 995 529 q 1107 281 1107 399 q 1045 75 1107 157 q 885 -7 984 -7 m 907 20 q 992 70 956 20 q 1028 216 1028 119 q 986 425 1028 349 q 880 501 945 501 q 795 455 833 501 q 758 301 758 410 q 803 95 758 170 q 907 20 848 20 z "},"&":{"ha":1258,"x_min":25,"x_max":1257,"o":"m 659 949 l 701 835 l 688 835 q 558 944 632 903 q 415 986 485 986 q 319 950 351 986 q 288 869 288 913 q 421 656 288 787 l 864 218 q 932 390 913 286 q 951 551 951 494 q 932 605 951 593 q 869 618 913 616 l 860 619 l 838 618 l 838 629 l 1050 631 l 1050 618 q 1004 600 1016 622 q 981 500 992 577 q 884 199 952 296 l 986 97 q 1136 24 1060 24 q 1250 58 1191 24 l 1257 49 q 1060 -16 1166 -16 q 856 77 949 -16 q 848 86 856 79 l 815 118 q 450 -16 673 -16 q 130 94 235 -16 q 25 336 25 204 q 96 535 25 451 q 290 643 167 620 q 237 734 255 693 q 218 822 218 775 q 271 955 218 896 q 439 1014 324 1014 q 555 996 505 1014 q 659 949 606 979 m 796 136 l 415 505 q 367 555 411 509 q 310 621 323 602 q 106 416 106 573 q 238 156 106 276 q 538 36 370 36 q 675 57 627 36 q 786 129 724 79 q 792 134 789 132 q 796 136 795 136 z "},"'":{"ha":232,"x_min":24,"x_max":205,"o":"m 28 640 l 24 646 q 121 756 98 701 q 143 850 143 811 q 127 876 143 876 q 115 873 125 876 q 98 871 106 871 q 47 891 68 871 q 25 940 25 911 q 46 991 25 969 q 102 1014 66 1014 q 175 978 144 1014 q 205 878 205 942 q 166 749 205 806 q 28 640 127 692 z "},"(":{"ha":507,"x_min":53,"x_max":467,"o":"m 443 1014 l 467 977 q 98 338 98 777 q 185 -26 98 136 q 467 -297 273 -189 l 443 -335 q 159 -67 264 -248 q 53 343 53 113 q 152 738 53 562 q 443 1014 252 914 z "},")":{"ha":507,"x_min":40,"x_max":454,"o":"m 64 -335 l 40 -297 q 319 -32 230 -195 q 408 342 408 131 q 40 977 408 774 l 64 1014 q 349 747 244 923 q 454 336 454 571 q 355 -59 454 119 q 64 -335 256 -236 z "},"*":{"ha":492,"x_min":31,"x_max":460,"o":"m 250 524 l 240 524 l 195 684 l 35 644 l 31 654 l 142 772 l 31 890 l 36 897 l 192 859 l 241 1015 l 252 1015 l 296 859 l 454 900 l 460 892 l 347 770 l 460 650 l 454 640 l 297 684 l 250 524 m 326 771 q 302 829 326 806 q 245 852 279 852 q 189 830 213 852 q 164 771 164 807 q 188 714 164 737 q 245 690 212 690 q 303 714 279 690 q 326 771 326 738 z "},"+":{"ha":762,"x_min":14,"x_max":749,"o":"m 343 741 l 419 741 l 419 414 l 749 414 l 749 338 l 419 338 l 419 0 l 343 0 l 343 338 l 14 338 l 14 414 l 343 414 l 343 741 z "},",":{"ha":232,"x_min":24,"x_max":205,"o":"m 29 -245 l 24 -240 q 119 -134 95 -190 q 143 -36 143 -79 q 129 -9 143 -9 q 114 -12 127 -9 q 103 -15 108 -14 l 98 -15 l 98 -16 q 47 5 70 -16 q 25 54 25 25 q 46 105 25 83 q 102 127 67 127 q 174 93 142 127 q 205 -8 205 58 q 145 -163 205 -108 q 29 -245 85 -219 z "},"-":{"ha":347,"x_min":31,"x_max":317,"o":"m 31 471 l 31 528 l 317 528 l 317 471 l 31 471 z "},".":{"ha":232,"x_min":41,"x_max":189,"o":"m 41 60 q 62 111 41 89 q 115 134 83 134 q 169 112 148 134 q 189 60 189 90 q 168 8 189 30 q 115 -14 147 -14 q 64 8 87 -14 q 41 60 41 30 z "},"/":{"ha":390,"x_min":-100,"x_max":490,"o":"m 399 996 l 490 996 l -8 0 l -100 0 l 399 996 z "},":":{"ha":232,"x_min":41,"x_max":189,"o":"m 41 607 q 62 659 41 636 q 115 681 83 681 q 169 659 148 681 q 189 607 189 637 q 168 554 189 576 q 115 533 147 533 q 62 556 83 533 q 41 607 41 578 m 41 60 q 62 111 41 89 q 115 134 83 134 q 169 112 148 134 q 189 60 189 90 q 168 8 189 30 q 115 -14 147 -14 q 64 8 87 -14 q 41 60 41 30 z "},";":{"ha":232,"x_min":24,"x_max":205,"o":"m 41 607 q 62 659 41 636 q 115 681 83 681 q 169 659 148 681 q 189 607 189 637 q 168 554 189 576 q 115 533 147 533 q 62 556 83 533 q 41 607 41 578 m 29 -245 l 24 -240 q 119 -134 95 -190 q 143 -36 143 -79 q 129 -9 143 -9 q 114 -12 127 -9 q 103 -15 108 -14 l 98 -15 l 98 -16 q 47 5 70 -16 q 25 54 25 25 q 46 105 25 83 q 102 127 67 127 q 174 93 142 127 q 205 -8 205 58 q 145 -163 205 -108 q 29 -245 85 -219 z "},"<":{"ha":762,"x_min":36,"x_max":726,"o":"m 36 319 l 36 406 l 726 725 l 726 639 l 125 363 l 726 86 l 726 0 l 36 319 z "},"=":{"ha":762,"x_min":16,"x_max":746,"o":"m 746 542 l 746 465 l 16 465 l 16 542 l 746 542 m 746 272 l 746 196 l 16 196 l 16 272 l 746 272 z "},">":{"ha":762,"x_min":36,"x_max":726,"o":"m 726 406 l 726 319 l 36 0 l 36 86 l 637 363 l 36 639 l 36 725 l 726 406 z "},"?":{"ha":492,"x_min":11,"x_max":475,"o":"m 179 261 l 165 611 q 326 681 269 629 q 383 811 383 732 q 336 933 383 878 q 211 987 288 987 q 102 957 153 987 q 22 860 51 926 l 11 860 l 43 978 q 210 1014 132 1014 q 403 947 331 1014 q 475 771 475 881 q 292 530 475 598 q 223 497 237 511 q 207 443 210 484 l 193 261 l 179 261 m 114 58 q 135 111 114 89 q 187 132 157 132 q 240 111 218 132 q 261 58 261 89 q 239 6 261 28 q 187 -16 217 -16 q 136 6 157 -16 q 114 58 114 27 z "},"@":{"ha":1279,"x_min":86,"x_max":1181,"o":"m 1055 110 q 851 13 945 41 q 644 -16 758 -16 q 250 124 413 -16 q 86 464 86 264 q 265 852 86 690 q 703 1014 444 1014 q 1042 900 904 1014 q 1181 608 1181 787 q 1089 340 1181 461 q 882 220 997 220 q 782 254 818 220 q 747 379 745 288 q 668 256 717 292 q 566 220 619 220 q 431 273 486 220 q 376 419 376 326 q 470 643 376 541 q 677 746 564 746 q 815 629 787 746 l 847 728 l 949 728 q 836 330 836 380 q 856 280 836 304 q 911 256 876 256 q 1066 358 987 256 q 1145 606 1145 460 q 1008 880 1145 784 q 710 975 872 975 q 336 827 500 975 q 171 465 171 679 q 312 141 171 266 q 665 17 453 17 q 857 47 754 17 q 1038 135 960 77 l 1055 110 m 791 615 q 767 684 791 660 q 701 708 743 708 q 555 592 623 708 q 488 368 488 476 q 515 285 488 315 q 587 254 543 254 q 736 400 681 254 q 791 615 791 546 z "},"A":{"ha":956,"x_min":7,"x_max":949,"o":"m 581 460 l 289 460 l 138 82 q 122 32 122 41 q 155 9 122 9 l 155 0 l 7 0 l 7 9 q 57 24 37 9 q 102 100 77 39 l 464 1014 l 481 1014 l 838 131 q 865 67 838 124 q 949 9 892 9 l 949 0 l 715 0 l 715 9 q 747 35 747 9 q 732 89 747 52 q 727 98 729 92 q 725 104 726 104 l 581 460 m 298 488 l 568 488 l 433 828 l 298 488 z "},"B":{"ha":810,"x_min":56,"x_max":766,"o":"m 57 989 l 57 999 l 317 999 q 478 989 431 999 q 569 953 526 980 q 643 876 612 926 q 673 761 673 825 q 549 561 673 634 q 711 472 656 543 q 766 300 766 401 q 719 128 766 205 q 611 25 672 51 q 441 0 551 0 l 56 0 l 56 9 q 115 28 102 9 q 127 123 127 47 l 127 876 q 124 950 127 930 q 104 979 121 970 q 57 989 87 989 m 243 978 l 243 539 l 364 539 q 528 610 488 539 q 568 750 568 680 q 537 876 568 825 q 446 952 506 926 q 269 978 386 978 l 243 978 m 321 518 l 243 518 l 243 201 q 248 116 243 136 q 271 75 253 96 q 329 40 289 53 q 444 26 369 26 q 609 80 561 26 q 657 240 657 134 q 614 419 657 350 q 518 503 572 488 q 321 518 464 518 z "},"C":{"ha":1071,"x_min":50,"x_max":1060,"o":"m 914 949 l 951 843 l 942 843 q 600 987 797 987 q 270 866 396 987 q 144 572 144 745 q 200 328 144 466 q 377 100 256 189 q 669 11 498 11 q 890 47 782 11 q 1051 144 998 83 l 1060 142 l 990 35 q 770 -9 821 -2 q 635 -16 720 -16 q 185 130 321 -16 q 50 478 50 275 q 120 742 50 615 q 320 941 189 868 q 619 1014 451 1014 q 765 999 703 1014 q 867 967 826 983 l 911 950 q 914 949 913 949 z "},"D":{"ha":1173,"x_min":53,"x_max":1128,"o":"m 53 989 l 53 999 l 511 999 q 788 971 686 999 q 964 885 889 944 q 1084 734 1040 826 q 1128 529 1128 642 q 1082 314 1128 420 q 958 133 1036 209 q 792 28 879 56 q 522 0 705 0 l 53 0 l 53 9 l 65 9 q 113 39 102 9 q 125 146 125 68 l 125 873 q 111 972 125 955 q 53 989 97 989 m 393 978 l 240 978 l 240 203 q 265 94 240 130 q 349 42 290 58 q 510 26 409 26 q 904 171 791 26 q 1018 485 1018 315 q 862 831 1018 685 q 393 978 707 978 z "},"E":{"ha":753,"x_min":54,"x_max":737,"o":"m 54 987 l 54 999 l 682 999 l 682 861 l 672 861 q 638 951 652 938 q 570 965 624 965 l 240 965 l 240 517 l 546 517 q 604 525 591 517 q 616 550 616 534 l 627 550 l 627 456 l 616 456 q 601 482 613 475 q 554 489 588 489 l 240 489 l 240 180 q 253 80 240 111 q 294 41 266 49 q 379 33 322 33 l 555 33 q 663 39 640 33 q 703 62 686 45 q 728 138 719 79 l 737 138 l 737 0 l 54 0 l 54 9 q 107 23 89 12 q 125 81 125 34 l 125 888 q 115 965 125 943 q 54 987 106 987 z "},"F":{"ha":694,"x_min":50,"x_max":682,"o":"m 50 989 l 50 999 l 682 999 l 682 882 l 672 882 l 672 886 q 671 890 671 888 q 633 954 657 942 q 558 965 608 965 l 236 965 l 236 525 l 536 525 q 589 531 575 525 q 606 558 604 537 l 615 558 l 615 463 l 606 463 q 561 497 606 497 l 236 497 l 236 98 q 253 26 236 42 q 313 9 271 9 l 313 0 l 50 0 l 50 9 q 109 27 96 9 q 121 77 121 45 l 121 899 q 106 969 121 949 q 50 989 92 989 z "},"G":{"ha":1055,"x_min":46,"x_max":1032,"o":"m 1032 9 l 1032 0 l 629 0 q 426 25 513 0 q 249 120 339 50 q 102 295 158 191 q 46 509 46 399 q 116 747 46 628 q 316 940 186 865 q 610 1014 446 1014 q 921 949 757 1014 l 962 833 l 953 833 q 810 944 901 900 q 608 987 720 987 q 292 842 415 987 q 168 481 168 696 q 189 321 168 391 q 265 183 209 251 q 385 82 321 115 q 528 38 449 50 q 654 26 608 25 l 708 28 q 822 45 799 31 q 844 114 844 58 l 844 265 q 826 325 844 309 q 774 338 808 340 l 774 347 l 1032 347 l 1032 338 q 974 321 989 338 q 960 256 960 304 l 960 98 q 972 30 960 51 q 1018 9 985 9 l 1032 9 z "},"H":{"ha":1028,"x_min":53,"x_max":974,"o":"m 787 498 l 239 498 l 239 114 q 244 45 239 60 q 263 20 249 30 q 311 9 277 9 l 311 0 l 53 0 l 53 9 q 123 78 123 5 l 123 882 q 112 968 123 950 q 53 989 101 987 l 53 999 l 311 999 l 311 989 q 254 972 269 986 q 239 917 239 959 l 239 526 l 787 526 l 787 884 q 777 967 787 945 q 718 989 766 989 l 718 999 l 974 999 l 974 989 q 928 982 943 989 q 908 960 913 975 q 903 884 903 945 l 903 117 q 908 43 903 58 q 927 19 913 28 q 974 9 941 9 l 974 0 l 718 0 l 718 9 q 773 26 760 9 q 787 118 787 43 l 787 498 z "},"I":{"ha":361,"x_min":47,"x_max":314,"o":"m 314 999 l 314 989 q 270 983 294 991 q 242 959 246 975 q 237 885 237 943 l 237 118 q 242 42 237 56 q 262 19 248 28 q 314 9 277 9 l 314 0 l 47 0 l 47 9 q 110 29 98 9 q 122 117 122 48 l 122 876 q 109 969 122 947 q 47 989 95 991 l 47 999 l 314 999 z "},"J":{"ha":361,"x_min":-113,"x_max":315,"o":"m 47 999 l 315 999 l 315 989 q 251 968 264 989 q 239 900 239 947 l 239 50 q 231 -131 239 -71 q 194 -236 222 -191 q 119 -308 165 -281 q 9 -335 72 -335 q -113 -314 -50 -335 l -111 -302 q -57 -309 -93 -309 q 77 -244 31 -309 q 123 -24 123 -180 l 123 896 q 108 973 123 958 q 47 989 93 989 l 47 999 z "},"K":{"ha":1143,"x_min":40,"x_max":1137,"o":"m 40 999 l 326 999 l 326 989 q 260 975 279 991 q 241 892 241 959 l 241 509 l 835 954 q 852 977 852 966 q 812 989 852 989 l 812 999 l 1028 999 l 1028 989 q 869 929 947 987 l 353 543 l 868 151 q 870 150 869 151 q 872 148 871 149 q 875 147 873 147 q 1033 40 977 71 q 1137 9 1088 9 l 1137 0 l 798 0 l 798 9 q 843 20 843 9 q 806 57 843 28 l 241 486 l 241 115 q 251 35 241 50 q 275 14 260 20 q 325 9 290 7 l 325 0 l 40 0 l 40 9 q 112 27 97 7 q 126 111 126 47 l 126 886 q 112 972 126 953 q 40 989 97 992 l 40 999 z "},"L":{"ha":753,"x_min":16,"x_max":705,"o":"m 17 0 l 17 9 q 78 27 64 9 q 92 87 92 45 l 92 905 q 81 968 92 949 q 16 989 70 987 l 16 999 l 283 999 l 283 989 q 231 979 246 989 q 212 957 216 970 q 207 899 207 944 l 207 197 q 250 70 207 107 q 399 33 294 33 l 521 33 q 650 77 609 33 q 696 240 691 120 l 705 240 l 705 0 l 17 0 z "},"M":{"ha":1229,"x_min":3,"x_max":1225,"o":"m 968 999 l 1125 999 l 1125 989 q 1046 905 1046 985 q 1050 859 1046 888 l 1154 102 q 1176 29 1164 45 q 1225 9 1187 13 l 1225 0 l 1000 0 l 1000 9 q 1044 53 1044 8 q 1040 93 1044 63 l 939 827 l 581 0 l 574 0 l 214 825 l 113 87 q 110 49 110 71 q 155 9 110 9 l 155 0 l 3 0 l 3 9 q 47 18 37 9 q 62 46 57 27 q 71 87 68 64 l 184 895 q 129 975 157 962 q 75 989 101 989 l 75 999 l 264 999 l 615 182 l 968 999 z "},"N":{"ha":1114,"x_min":9,"x_max":1067,"o":"m 873 999 l 1067 999 l 1067 989 q 1006 970 1023 987 q 989 897 989 953 l 989 -12 l 192 836 l 192 97 q 197 45 192 62 q 213 22 203 28 q 264 9 223 16 l 264 0 l 72 0 l 72 9 q 136 28 123 9 q 149 115 149 46 l 149 791 q 124 937 149 880 q 9 989 99 993 l 9 999 l 197 999 l 946 201 l 946 907 q 926 976 946 964 q 873 989 905 989 l 873 999 z "},"O":{"ha":1129,"x_min":46,"x_max":1083,"o":"m 606 1014 q 949 886 816 1014 q 1083 567 1083 758 q 928 153 1083 321 q 518 -16 774 -16 q 178 120 311 -16 q 46 446 46 256 q 110 709 46 574 q 302 929 174 844 q 606 1014 430 1014 m 602 37 q 805 93 705 37 q 963 245 905 148 q 1021 444 1021 342 q 943 708 1021 589 q 742 894 865 827 q 513 961 618 961 q 243 849 364 961 q 122 571 122 737 q 270 198 122 359 q 602 37 418 37 z "},"P":{"ha":737,"x_min":56,"x_max":693,"o":"m 56 989 l 56 999 l 340 999 q 561 965 492 999 q 662 881 630 931 q 693 747 693 830 q 606 557 693 621 q 368 496 518 493 l 368 505 q 523 564 463 505 q 582 717 582 622 q 553 848 582 791 q 472 935 524 905 q 313 965 420 965 l 241 965 l 241 110 q 258 23 241 37 q 319 9 274 9 l 319 0 l 56 0 l 56 9 q 126 74 126 9 l 126 901 q 113 971 126 954 q 56 989 99 989 z "},"Q":{"ha":1129,"x_min":46,"x_max":1326,"o":"m 669 3 q 690 -12 670 1 l 795 -87 q 955 -186 881 -148 q 1101 -245 1028 -224 q 1247 -267 1175 -267 q 1325 -260 1275 -267 l 1326 -268 q 1225 -302 1284 -288 q 1136 -315 1166 -315 q 852 -235 1027 -315 q 521 -16 676 -155 q 171 126 296 -16 q 46 444 46 267 q 111 711 46 579 q 303 928 176 843 q 606 1014 430 1014 q 950 885 817 1014 q 1083 566 1083 757 q 978 213 1083 374 q 669 3 872 52 m 602 36 q 805 91 705 36 q 963 243 905 146 q 1021 443 1021 340 q 940 712 1021 591 q 736 897 860 832 q 513 961 613 961 q 243 849 364 961 q 122 571 122 737 q 270 198 122 360 q 602 36 417 36 z "},"R":{"ha":1100,"x_min":54,"x_max":1090,"o":"m 54 989 l 54 999 l 338 999 q 494 994 446 999 q 592 963 542 989 q 669 890 643 936 q 694 778 694 844 q 649 633 694 702 q 519 517 603 564 l 590 408 q 712 230 613 368 q 866 62 812 92 q 971 32 920 32 q 1086 71 1021 32 l 1090 57 q 879 -9 1009 -9 q 730 42 792 -9 q 513 323 667 93 q 511 326 511 325 l 411 481 l 322 478 l 241 478 l 241 96 q 254 30 241 50 q 313 9 266 9 l 313 0 l 54 0 l 54 9 q 114 30 102 12 q 126 104 126 48 l 126 899 q 116 963 126 937 q 54 989 106 988 m 241 972 l 241 504 l 346 504 q 529 562 469 504 q 589 715 589 621 q 530 890 589 808 q 323 972 471 972 l 241 972 z "},"S":{"ha":665,"x_min":35,"x_max":635,"o":"m 533 986 l 581 861 l 572 860 q 535 900 572 861 q 449 961 497 939 q 339 982 400 982 q 177 923 237 982 q 117 782 117 865 q 145 686 117 727 q 262 610 173 645 q 473 532 416 558 q 582 444 530 506 q 635 283 635 381 q 625 206 635 243 q 595 135 616 169 q 544 72 574 100 q 484 30 515 44 q 388 7 454 15 q 301 0 322 0 l 35 0 l 35 290 l 45 290 q 113 89 46 146 q 319 32 179 32 q 513 92 447 32 q 579 237 579 153 q 556 325 579 289 q 492 389 533 361 q 335 456 450 416 q 174 526 220 496 q 96 617 127 556 q 65 741 65 677 q 145 935 65 857 q 354 1014 224 1014 q 463 1002 404 1014 q 528 987 521 991 q 533 986 530 986 z "},"T":{"ha":839,"x_min":0,"x_max":840,"o":"m 840 1034 l 793 913 l 783 913 q 786 942 786 924 q 775 962 786 958 q 739 966 764 966 l 478 966 l 478 111 q 487 39 478 58 q 510 15 495 20 q 557 9 524 9 l 557 0 l 286 0 l 286 9 q 350 29 337 13 q 363 97 363 45 l 363 966 l 113 966 q 63 962 75 966 q 52 940 52 958 q 57 913 52 931 l 47 913 l 0 1034 l 9 1034 q 34 1004 22 1009 q 85 999 45 999 l 749 999 q 805 1004 788 999 q 831 1034 823 1009 l 840 1034 z "},"U":{"ha":1042,"x_min":56,"x_max":985,"o":"m 985 0 l 796 0 l 796 154 q 452 -7 652 -7 q 216 77 303 -7 q 129 307 129 160 l 129 905 q 116 974 129 960 q 56 989 103 989 l 56 999 l 321 999 l 321 989 q 261 976 279 989 q 244 913 244 962 l 244 364 q 325 118 244 192 q 509 45 406 45 q 796 191 671 45 l 796 867 q 781 972 796 956 q 732 989 765 989 l 722 989 l 722 999 l 985 999 l 985 989 q 923 972 936 986 q 911 921 911 959 l 911 107 q 916 44 911 59 q 935 19 920 29 q 985 9 949 9 l 985 0 z "},"V":{"ha":956,"x_min":7,"x_max":949,"o":"m 488 -16 l 475 -16 l 119 864 q 57 973 81 957 q 7 989 33 989 l 7 999 l 237 999 l 237 989 q 207 965 207 991 q 211 943 207 955 l 521 174 l 829 943 q 835 968 835 958 q 799 989 835 991 l 799 999 l 949 999 l 949 989 q 916 984 933 989 q 880 949 899 980 q 861 917 862 919 l 488 -16 z "},"W":{"ha":1432,"x_min":3,"x_max":1429,"o":"m 1013 -16 l 997 -16 l 721 746 l 450 -16 l 435 -16 l 110 876 q 68 960 90 930 q 3 989 45 989 l 3 999 l 239 999 l 239 989 q 204 964 204 989 q 215 918 204 949 l 479 192 l 697 806 l 676 864 q 623 965 648 941 q 566 989 597 989 l 566 999 l 799 999 l 799 989 q 765 960 765 989 q 779 913 765 951 l 1043 189 l 1307 926 q 1308 929 1308 928 l 1318 964 q 1283 989 1318 989 l 1283 999 l 1429 999 l 1429 989 q 1335 892 1369 988 l 1013 -16 z "},"X":{"ha":940,"x_min":14,"x_max":933,"o":"m 850 999 l 850 989 q 775 947 808 994 q 773 945 774 947 q 771 942 772 943 l 766 935 q 762 929 762 930 l 755 922 l 501 564 l 806 125 q 882 28 856 49 q 933 9 909 7 l 933 0 l 685 0 l 685 9 q 717 32 717 7 q 696 82 717 52 l 431 464 l 163 90 q 147 66 163 90 q 129 28 129 45 q 163 9 129 7 l 163 0 l 14 0 l 14 9 q 71 35 46 9 l 82 47 l 406 500 l 107 930 q 81 966 107 940 q 24 989 56 991 l 24 999 l 275 999 l 275 989 q 235 966 235 989 q 260 914 235 950 l 478 600 l 713 929 q 723 948 713 930 q 733 971 733 966 q 726 986 733 983 q 699 989 719 989 l 699 999 l 850 999 z "},"Y":{"ha":796,"x_min":8,"x_max":787,"o":"m 637 999 l 787 999 l 787 989 q 741 975 759 987 q 699 928 722 964 l 454 558 l 454 100 q 469 27 454 44 q 530 9 483 9 l 530 0 l 264 0 l 264 9 q 340 70 340 5 l 339 98 l 339 521 l 94 926 q 8 989 56 991 l 8 999 l 244 999 l 244 989 q 211 964 211 989 q 228 924 211 951 l 429 591 l 650 926 q 663 946 656 932 q 671 966 671 961 q 642 989 671 989 l 637 989 l 637 999 z "},"Z":{"ha":983,"x_min":9,"x_max":961,"o":"m 957 157 l 957 0 l 9 0 l 785 961 l 265 961 q 177 944 201 961 q 143 863 153 928 l 134 863 l 139 999 l 961 999 l 183 37 l 846 37 q 923 61 903 37 q 947 157 943 85 l 957 157 z "},"[":{"ha":435,"x_min":106,"x_max":390,"o":"m 390 -317 l 106 -317 l 106 999 l 390 999 l 390 953 l 151 953 l 151 -272 l 390 -272 l 390 -317 z "},"\\":{"ha":390,"x_min":-100,"x_max":490,"o":"m -8 996 l 490 0 l 399 0 l -100 996 l -8 996 z "},"]":{"ha":435,"x_min":45,"x_max":329,"o":"m 45 999 l 329 999 l 329 -317 l 45 -317 l 45 -271 l 283 -271 l 283 954 l 45 954 l 45 999 z "},"^":{"ha":762,"x_min":18,"x_max":743,"o":"m 338 1000 l 424 1000 l 743 310 l 657 310 l 382 911 l 104 310 l 18 310 l 338 1000 z "},"_":{"ha":694,"x_min":-8,"x_max":703,"o":"m -8 -174 l -8 -103 l 703 -103 l 703 -174 l -8 -174 z "},"`":{"ha":463,"x_min":102,"x_max":339,"o":"m 102 1278 l 224 1278 l 339 1068 l 307 1068 l 102 1278 z "},"a":{"ha":956,"x_min":7,"x_max":949,"o":"m 581 460 l 289 460 l 138 82 q 122 32 122 41 q 155 9 122 9 l 155 0 l 7 0 l 7 9 q 57 24 37 9 q 102 100 77 39 l 464 1014 l 481 1014 l 838 131 q 865 67 838 124 q 949 9 892 9 l 949 0 l 715 0 l 715 9 q 747 35 747 9 q 732 89 747 52 q 727 98 729 92 q 725 104 726 104 l 581 460 m 298 488 l 568 488 l 433 828 l 298 488 z "},"b":{"ha":810,"x_min":56,"x_max":766,"o":"m 57 989 l 57 999 l 317 999 q 478 989 431 999 q 569 953 526 980 q 643 876 612 926 q 673 761 673 825 q 549 561 673 634 q 711 472 656 543 q 766 300 766 401 q 719 128 766 205 q 611 25 672 51 q 441 0 551 0 l 56 0 l 56 9 q 115 28 102 9 q 127 123 127 47 l 127 876 q 124 950 127 930 q 104 979 121 970 q 57 989 87 989 m 243 978 l 243 539 l 364 539 q 528 610 488 539 q 568 750 568 680 q 537 876 568 825 q 446 952 506 926 q 269 978 386 978 l 243 978 m 321 518 l 243 518 l 243 201 q 248 116 243 136 q 271 75 253 96 q 329 40 289 53 q 444 26 369 26 q 609 80 561 26 q 657 240 657 134 q 614 419 657 350 q 518 503 572 488 q 321 518 464 518 z "},"c":{"ha":1071,"x_min":50,"x_max":1060,"o":"m 914 949 l 951 843 l 942 843 q 600 987 797 987 q 270 866 396 987 q 144 572 144 745 q 200 328 144 466 q 377 100 256 189 q 669 11 498 11 q 890 47 782 11 q 1051 144 998 83 l 1060 142 l 990 35 q 770 -9 821 -2 q 635 -16 720 -16 q 185 130 321 -16 q 50 478 50 275 q 120 742 50 615 q 320 941 189 868 q 619 1014 451 1014 q 765 999 703 1014 q 867 967 826 983 l 911 950 q 914 949 913 949 z "},"d":{"ha":1173,"x_min":53,"x_max":1128,"o":"m 53 989 l 53 999 l 511 999 q 788 971 686 999 q 964 885 889 944 q 1084 734 1040 826 q 1128 529 1128 642 q 1082 314 1128 420 q 958 133 1036 209 q 792 28 879 56 q 522 0 705 0 l 53 0 l 53 9 l 65 9 q 113 39 102 9 q 125 146 125 68 l 125 873 q 111 972 125 955 q 53 989 97 989 m 393 978 l 240 978 l 240 203 q 265 94 240 130 q 349 42 290 58 q 510 26 409 26 q 904 171 791 26 q 1018 485 1018 315 q 862 831 1018 685 q 393 978 707 978 z "},"e":{"ha":753,"x_min":54,"x_max":737,"o":"m 54 987 l 54 999 l 682 999 l 682 861 l 672 861 q 638 951 652 938 q 570 965 624 965 l 240 965 l 240 517 l 546 517 q 604 525 591 517 q 616 550 616 534 l 627 550 l 627 456 l 616 456 q 601 482 613 475 q 554 489 588 489 l 240 489 l 240 180 q 253 80 240 111 q 294 41 266 49 q 379 33 322 33 l 555 33 q 663 39 640 33 q 703 62 686 45 q 728 138 719 79 l 737 138 l 737 0 l 54 0 l 54 9 q 107 23 89 12 q 125 81 125 34 l 125 888 q 115 965 125 943 q 54 987 106 987 z "},"f":{"ha":694,"x_min":50,"x_max":682,"o":"m 50 989 l 50 999 l 682 999 l 682 882 l 672 882 l 672 886 q 671 890 671 888 q 633 954 657 942 q 558 965 608 965 l 236 965 l 236 525 l 536 525 q 589 531 575 525 q 606 558 604 537 l 615 558 l 615 463 l 606 463 q 561 497 606 497 l 236 497 l 236 98 q 253 26 236 42 q 313 9 271 9 l 313 0 l 50 0 l 50 9 q 109 27 96 9 q 121 77 121 45 l 121 899 q 106 969 121 949 q 50 989 92 989 z "},"g":{"ha":1055,"x_min":46,"x_max":1032,"o":"m 1032 9 l 1032 0 l 629 0 q 426 25 513 0 q 249 120 339 50 q 102 295 158 191 q 46 509 46 399 q 116 747 46 628 q 316 940 186 865 q 610 1014 446 1014 q 921 949 757 1014 l 962 833 l 953 833 q 810 944 901 900 q 608 987 720 987 q 292 842 415 987 q 168 481 168 696 q 189 321 168 391 q 265 183 209 251 q 385 82 321 115 q 528 38 449 50 q 654 26 608 25 l 708 28 q 822 45 799 31 q 844 114 844 58 l 844 265 q 826 325 844 309 q 774 338 808 340 l 774 347 l 1032 347 l 1032 338 q 974 321 989 338 q 960 256 960 304 l 960 98 q 972 30 960 51 q 1018 9 985 9 l 1032 9 z "},"h":{"ha":1028,"x_min":53,"x_max":974,"o":"m 787 498 l 239 498 l 239 114 q 244 45 239 60 q 263 20 249 30 q 311 9 277 9 l 311 0 l 53 0 l 53 9 q 123 78 123 5 l 123 882 q 112 968 123 950 q 53 989 101 987 l 53 999 l 311 999 l 311 989 q 254 972 269 986 q 239 917 239 959 l 239 526 l 787 526 l 787 884 q 777 967 787 945 q 718 989 766 989 l 718 999 l 974 999 l 974 989 q 928 982 943 989 q 908 960 913 975 q 903 884 903 945 l 903 117 q 908 43 903 58 q 927 19 913 28 q 974 9 941 9 l 974 0 l 718 0 l 718 9 q 773 26 760 9 q 787 118 787 43 l 787 498 z "},"i":{"ha":361,"x_min":47,"x_max":314,"o":"m 314 999 l 314 989 q 270 983 294 991 q 242 959 246 975 q 237 885 237 943 l 237 118 q 242 42 237 56 q 262 19 248 28 q 314 9 277 9 l 314 0 l 47 0 l 47 9 q 110 29 98 9 q 122 117 122 48 l 122 876 q 109 969 122 947 q 47 989 95 991 l 47 999 l 314 999 z "},"j":{"ha":361,"x_min":-113,"x_max":315,"o":"m 47 999 l 315 999 l 315 989 q 251 968 264 989 q 239 900 239 947 l 239 50 q 231 -131 239 -71 q 194 -236 222 -191 q 119 -308 165 -281 q 9 -335 72 -335 q -113 -314 -50 -335 l -111 -302 q -57 -309 -93 -309 q 77 -244 31 -309 q 123 -24 123 -180 l 123 896 q 108 973 123 958 q 47 989 93 989 l 47 999 z "},"k":{"ha":1143,"x_min":40,"x_max":1137,"o":"m 40 999 l 326 999 l 326 989 q 260 975 279 991 q 241 892 241 959 l 241 509 l 835 954 q 852 977 852 966 q 812 989 852 989 l 812 999 l 1028 999 l 1028 989 q 869 929 947 987 l 353 543 l 868 151 q 870 150 869 151 q 872 148 871 149 q 875 147 873 147 q 1033 40 977 71 q 1137 9 1088 9 l 1137 0 l 798 0 l 798 9 q 843 20 843 9 q 806 57 843 28 l 241 486 l 241 115 q 251 35 241 50 q 275 14 260 20 q 325 9 290 7 l 325 0 l 40 0 l 40 9 q 112 27 97 7 q 126 111 126 47 l 126 886 q 112 972 126 953 q 40 989 97 992 l 40 999 z "},"l":{"ha":753,"x_min":16,"x_max":705,"o":"m 17 0 l 17 9 q 78 27 64 9 q 92 87 92 45 l 92 905 q 81 968 92 949 q 16 989 70 987 l 16 999 l 283 999 l 283 989 q 231 979 246 989 q 212 957 216 970 q 207 899 207 944 l 207 197 q 250 70 207 107 q 399 33 294 33 l 521 33 q 650 77 609 33 q 696 240 691 120 l 705 240 l 705 0 l 17 0 z "},"m":{"ha":1229,"x_min":3,"x_max":1225,"o":"m 968 999 l 1125 999 l 1125 989 q 1046 905 1046 985 q 1050 859 1046 888 l 1154 102 q 1176 29 1164 45 q 1225 9 1187 13 l 1225 0 l 1000 0 l 1000 9 q 1044 53 1044 8 q 1040 93 1044 63 l 939 827 l 581 0 l 574 0 l 214 825 l 113 87 q 110 49 110 71 q 155 9 110 9 l 155 0 l 3 0 l 3 9 q 47 18 37 9 q 62 46 57 27 q 71 87 68 64 l 184 895 q 129 975 157 962 q 75 989 101 989 l 75 999 l 264 999 l 615 182 l 968 999 z "},"n":{"ha":1114,"x_min":9,"x_max":1067,"o":"m 873 999 l 1067 999 l 1067 989 q 1006 970 1023 987 q 989 897 989 953 l 989 -12 l 192 836 l 192 97 q 197 45 192 62 q 213 22 203 28 q 264 9 223 16 l 264 0 l 72 0 l 72 9 q 136 28 123 9 q 149 115 149 46 l 149 791 q 124 937 149 880 q 9 989 99 993 l 9 999 l 197 999 l 946 201 l 946 907 q 926 976 946 964 q 873 989 905 989 l 873 999 z "},"o":{"ha":1129,"x_min":46,"x_max":1083,"o":"m 606 1014 q 949 886 816 1014 q 1083 567 1083 758 q 928 153 1083 321 q 518 -16 774 -16 q 178 120 311 -16 q 46 446 46 256 q 110 709 46 574 q 302 929 174 844 q 606 1014 430 1014 m 602 37 q 805 93 705 37 q 963 245 905 148 q 1021 444 1021 342 q 943 708 1021 589 q 742 894 865 827 q 513 961 618 961 q 243 849 364 961 q 122 571 122 737 q 270 198 122 359 q 602 37 418 37 z "},"p":{"ha":737,"x_min":56,"x_max":693,"o":"m 56 989 l 56 999 l 340 999 q 561 965 492 999 q 662 881 630 931 q 693 747 693 830 q 606 557 693 621 q 368 496 518 493 l 368 505 q 523 564 463 505 q 582 717 582 622 q 553 848 582 791 q 472 935 524 905 q 313 965 420 965 l 241 965 l 241 110 q 258 23 241 37 q 319 9 274 9 l 319 0 l 56 0 l 56 9 q 126 74 126 9 l 126 901 q 113 971 126 954 q 56 989 99 989 z "},"q":{"ha":1129,"x_min":46,"x_max":1326,"o":"m 669 3 q 690 -12 670 1 l 795 -87 q 955 -186 881 -148 q 1101 -245 1028 -224 q 1247 -267 1175 -267 q 1325 -260 1275 -267 l 1326 -268 q 1225 -302 1284 -288 q 1136 -315 1166 -315 q 852 -235 1027 -315 q 521 -16 676 -155 q 171 126 296 -16 q 46 444 46 267 q 111 711 46 579 q 303 928 176 843 q 606 1014 430 1014 q 950 885 817 1014 q 1083 566 1083 757 q 978 213 1083 374 q 669 3 872 52 m 602 36 q 805 91 705 36 q 963 243 905 146 q 1021 443 1021 340 q 940 712 1021 591 q 736 897 860 832 q 513 961 613 961 q 243 849 364 961 q 122 571 122 737 q 270 198 122 360 q 602 36 417 36 z "},"r":{"ha":1100,"x_min":54,"x_max":1090,"o":"m 54 989 l 54 999 l 338 999 q 494 994 446 999 q 592 963 542 989 q 669 890 643 936 q 694 778 694 844 q 649 633 694 702 q 519 517 603 564 l 590 408 q 712 230 613 368 q 866 62 812 92 q 971 32 920 32 q 1086 71 1021 32 l 1090 57 q 879 -9 1009 -9 q 730 42 792 -9 q 513 323 667 93 q 511 326 511 325 l 411 481 l 322 478 l 241 478 l 241 96 q 254 30 241 50 q 313 9 266 9 l 313 0 l 54 0 l 54 9 q 114 30 102 12 q 126 104 126 48 l 126 899 q 116 963 126 937 q 54 989 106 988 m 241 972 l 241 504 l 346 504 q 529 562 469 504 q 589 715 589 621 q 530 890 589 808 q 323 972 471 972 l 241 972 z "},"s":{"ha":665,"x_min":35,"x_max":635,"o":"m 533 986 l 581 861 l 572 860 q 535 900 572 861 q 449 961 497 939 q 339 982 400 982 q 177 923 237 982 q 117 782 117 865 q 145 686 117 727 q 262 610 173 645 q 473 532 416 558 q 582 444 530 506 q 635 283 635 381 q 625 206 635 243 q 595 135 616 169 q 544 72 574 100 q 484 30 515 44 q 388 7 454 15 q 301 0 322 0 l 35 0 l 35 290 l 45 290 q 113 89 46 146 q 319 32 179 32 q 513 92 447 32 q 579 237 579 153 q 556 325 579 289 q 492 389 533 361 q 335 456 450 416 q 174 526 220 496 q 96 617 127 556 q 65 741 65 677 q 145 935 65 857 q 354 1014 224 1014 q 463 1002 404 1014 q 528 987 521 991 q 533 986 530 986 z "},"t":{"ha":839,"x_min":0,"x_max":840,"o":"m 840 1034 l 793 913 l 783 913 q 786 942 786 924 q 775 962 786 958 q 739 966 764 966 l 478 966 l 478 111 q 487 39 478 58 q 510 15 495 20 q 557 9 524 9 l 557 0 l 286 0 l 286 9 q 350 29 337 13 q 363 97 363 45 l 363 966 l 113 966 q 63 962 75 966 q 52 940 52 958 q 57 913 52 931 l 47 913 l 0 1034 l 9 1034 q 34 1004 22 1009 q 85 999 45 999 l 749 999 q 805 1004 788 999 q 831 1034 823 1009 l 840 1034 z "},"u":{"ha":1042,"x_min":56,"x_max":985,"o":"m 985 0 l 796 0 l 796 154 q 452 -7 652 -7 q 216 77 303 -7 q 129 307 129 160 l 129 905 q 116 974 129 960 q 56 989 103 989 l 56 999 l 321 999 l 321 989 q 261 976 279 989 q 244 913 244 962 l 244 364 q 325 118 244 192 q 509 45 406 45 q 796 191 671 45 l 796 867 q 781 972 796 956 q 732 989 765 989 l 722 989 l 722 999 l 985 999 l 985 989 q 923 972 936 986 q 911 921 911 959 l 911 107 q 916 44 911 59 q 935 19 920 29 q 985 9 949 9 l 985 0 z "},"v":{"ha":956,"x_min":7,"x_max":949,"o":"m 488 -16 l 475 -16 l 119 864 q 57 973 81 957 q 7 989 33 989 l 7 999 l 237 999 l 237 989 q 207 965 207 991 q 211 943 207 955 l 521 174 l 829 943 q 835 968 835 958 q 799 989 835 991 l 799 999 l 949 999 l 949 989 q 916 984 933 989 q 880 949 899 980 q 861 917 862 919 l 488 -16 z "},"w":{"ha":1432,"x_min":3,"x_max":1429,"o":"m 1013 -16 l 997 -16 l 721 746 l 450 -16 l 435 -16 l 110 876 q 68 960 90 930 q 3 989 45 989 l 3 999 l 239 999 l 239 989 q 204 964 204 989 q 215 918 204 949 l 479 192 l 697 806 l 676 864 q 623 965 648 941 q 566 989 597 989 l 566 999 l 799 999 l 799 989 q 765 960 765 989 q 779 913 765 951 l 1043 189 l 1307 926 q 1308 929 1308 928 l 1318 964 q 1283 989 1318 989 l 1283 999 l 1429 999 l 1429 989 q 1335 892 1369 988 l 1013 -16 z "},"x":{"ha":940,"x_min":14,"x_max":933,"o":"m 850 999 l 850 989 q 775 947 808 994 q 773 945 774 947 q 771 942 772 943 l 766 935 q 762 929 762 930 l 755 922 l 501 564 l 806 125 q 882 28 856 49 q 933 9 909 7 l 933 0 l 685 0 l 685 9 q 717 32 717 7 q 696 82 717 52 l 431 464 l 163 90 q 147 66 163 90 q 129 28 129 45 q 163 9 129 7 l 163 0 l 14 0 l 14 9 q 71 35 46 9 l 82 47 l 406 500 l 107 930 q 81 966 107 940 q 24 989 56 991 l 24 999 l 275 999 l 275 989 q 235 966 235 989 q 260 914 235 950 l 478 600 l 713 929 q 723 948 713 930 q 733 971 733 966 q 726 986 733 983 q 699 989 719 989 l 699 999 l 850 999 z "},"y":{"ha":796,"x_min":8,"x_max":787,"o":"m 637 999 l 787 999 l 787 989 q 741 975 759 987 q 699 928 722 964 l 454 558 l 454 100 q 469 27 454 44 q 530 9 483 9 l 530 0 l 264 0 l 264 9 q 340 70 340 5 l 339 98 l 339 521 l 94 926 q 8 989 56 991 l 8 999 l 244 999 l 244 989 q 211 964 211 989 q 228 924 211 951 l 429 591 l 650 926 q 663 946 656 932 q 671 966 671 961 q 642 989 671 989 l 637 989 l 637 999 z "},"z":{"ha":983,"x_min":9,"x_max":961,"o":"m 957 157 l 957 0 l 9 0 l 785 961 l 265 961 q 177 944 201 961 q 143 863 153 928 l 134 863 l 139 999 l 961 999 l 183 37 l 846 37 q 923 61 903 37 q 947 157 943 85 l 957 157 z "},"{":{"ha":667,"x_min":192,"x_max":571,"o":"m 571 -277 l 571 -300 q 386 -207 456 -285 q 315 -36 315 -129 q 330 69 315 6 q 334 82 331 69 l 342 127 q 347 174 347 159 q 309 264 347 220 q 192 319 271 309 l 192 346 q 310 402 273 358 q 347 492 347 446 q 331 592 347 529 q 315 701 315 655 q 387 873 315 798 q 571 965 459 949 l 571 940 q 416 781 416 901 q 433 680 416 742 q 449 568 449 617 q 401 436 449 498 q 248 336 353 374 l 248 334 q 397 233 345 299 q 449 97 449 167 q 433 -12 449 51 q 416 -115 416 -75 q 571 -277 416 -237 z "},"|":{"ha":278,"x_min":90,"x_max":187,"o":"m 90 935 l 187 935 l 187 -245 l 90 -245 l 90 935 z "},"}":{"ha":667,"x_min":96,"x_max":475,"o":"m 96 942 l 96 965 q 281 872 211 950 q 351 701 351 794 q 343 629 351 668 l 328 557 q 319 492 319 513 q 357 402 319 446 q 475 346 394 358 l 475 319 q 358 265 396 309 q 319 174 319 220 q 330 96 319 140 q 351 -36 351 12 q 283 -205 351 -127 q 96 -300 214 -283 l 96 -275 q 250 -115 250 -237 q 234 -11 250 -77 q 218 97 218 56 q 264 225 218 161 q 419 329 311 290 l 419 332 q 270 432 322 366 q 218 568 218 498 q 234 675 218 619 q 250 781 250 732 q 96 942 250 904 z "},"~":{"ha":737,"x_min":22,"x_max":721,"o":"m 46 311 l 22 311 q 90 419 22 382 q 235 456 158 456 q 391 423 293 456 q 510 386 489 391 q 557 380 530 380 q 648 400 609 380 q 699 456 686 420 l 721 456 q 654 351 721 390 q 497 311 587 311 q 416 319 449 311 q 314 350 384 326 q 221 379 245 373 q 174 385 197 385 q 93 364 137 385 q 46 311 50 343 z "},"Ä":{"ha":956,"x_min":7,"x_max":949,"o":"m 581 460 l 289 460 l 138 82 q 122 32 122 41 q 155 9 122 9 l 155 0 l 7 0 l 7 9 q 57 24 37 9 q 102 100 77 39 l 464 1014 l 481 1014 l 838 131 q 865 67 838 124 q 949 9 892 9 l 949 0 l 715 0 l 715 9 q 747 35 747 9 q 732 89 747 52 q 727 98 729 92 q 725 104 726 104 l 581 460 m 298 488 l 568 488 l 433 828 l 298 488 m 610 1069 q 566 1087 584 1069 q 547 1132 547 1105 q 567 1179 547 1162 q 610 1196 586 1196 q 654 1177 635 1196 q 673 1132 673 1158 q 655 1088 673 1107 q 610 1069 638 1069 m 347 1069 q 302 1088 320 1069 q 285 1132 285 1106 q 304 1178 285 1161 q 347 1196 323 1196 q 391 1177 372 1196 q 410 1132 410 1159 q 391 1087 410 1105 q 347 1069 371 1069 z "},"Å":{"ha":956,"x_min":7,"x_max":949,"o":"m 581 460 l 289 460 l 138 82 q 122 32 122 41 q 155 9 122 9 l 155 0 l 7 0 l 7 9 q 57 24 37 9 q 102 100 77 39 l 464 1014 l 481 1014 l 838 131 q 865 67 838 124 q 949 9 892 9 l 949 0 l 715 0 l 715 9 q 747 35 747 9 q 732 89 747 52 q 727 98 729 92 q 725 104 726 104 l 581 460 m 298 488 l 568 488 l 433 828 l 298 488 m 478 1068 q 401 1100 433 1068 q 368 1179 368 1133 q 400 1257 368 1224 q 478 1289 432 1289 q 556 1258 524 1289 q 589 1179 589 1226 q 558 1101 589 1134 q 478 1068 527 1068 m 478 1258 q 423 1235 447 1258 q 399 1179 399 1212 q 422 1124 399 1147 q 478 1100 446 1100 q 536 1123 513 1100 q 559 1179 559 1146 q 535 1236 559 1213 q 478 1258 512 1258 z "},"Ç":{"ha":1071,"x_min":50,"x_max":1060,"o":"m 593 -14 l 574 -52 q 671 -158 671 -83 q 604 -264 671 -222 q 429 -300 537 -306 l 429 -272 q 568 -240 536 -269 q 600 -183 600 -212 q 493 -111 600 -117 q 558 -14 536 -47 q 174 144 298 0 q 50 478 50 288 q 120 742 50 615 q 320 941 189 868 q 619 1014 451 1014 q 797 989 725 1014 l 911 950 q 914 949 913 949 l 951 843 l 942 843 q 804 942 889 897 q 600 987 719 987 q 358 930 464 987 q 198 774 252 872 q 144 572 144 677 q 200 328 144 466 q 377 100 256 189 q 669 11 498 11 q 889 46 781 11 q 1051 144 998 82 l 1060 142 l 990 35 q 755 -9 825 -1 q 593 -14 685 -18 z "},"É":{"ha":753,"x_min":54,"x_max":737,"o":"m 54 987 l 54 999 l 682 999 l 682 861 l 672 861 q 638 951 652 938 q 570 965 624 965 l 240 965 l 240 517 l 546 517 q 604 525 591 517 q 616 550 616 534 l 627 550 l 627 456 l 616 456 q 601 482 613 475 q 554 489 588 489 l 240 489 l 240 180 q 253 80 240 111 q 294 41 266 49 q 379 33 322 33 l 555 33 q 663 39 640 33 q 703 62 686 45 q 728 138 719 79 l 737 138 l 737 0 l 54 0 l 54 9 q 107 23 89 12 q 125 81 125 34 l 125 888 q 115 965 125 943 q 54 987 106 987 m 412 1278 l 534 1278 l 329 1068 l 297 1068 l 412 1278 z "},"Ñ":{"ha":1114,"x_min":9,"x_max":1067,"o":"m 873 999 l 1067 999 l 1067 989 q 1006 970 1023 987 q 989 897 989 953 l 989 -12 l 192 836 l 192 97 q 197 45 192 62 q 213 22 203 28 q 264 9 223 16 l 264 0 l 72 0 l 72 9 q 136 28 123 9 q 149 115 149 46 l 149 791 q 124 937 149 880 q 9 989 99 993 l 9 999 l 197 999 l 946 201 l 946 907 q 926 976 946 964 q 873 989 905 989 l 873 999 m 764 1214 l 791 1214 q 748 1111 793 1152 q 643 1069 704 1069 q 543 1097 597 1069 q 469 1134 489 1125 q 427 1143 450 1143 q 378 1125 399 1143 q 355 1069 357 1106 l 326 1069 q 368 1175 325 1137 q 468 1214 412 1214 q 509 1208 486 1214 q 592 1171 531 1202 q 683 1140 654 1140 q 764 1214 747 1140 z "},"Ö":{"ha":1129,"x_min":46,"x_max":1083,"o":"m 606 1014 q 949 886 816 1014 q 1083 567 1083 758 q 928 153 1083 321 q 518 -16 774 -16 q 178 120 311 -16 q 46 446 46 256 q 110 709 46 574 q 302 929 174 844 q 606 1014 430 1014 m 602 37 q 805 93 705 37 q 963 245 905 148 q 1021 444 1021 342 q 943 708 1021 589 q 742 894 865 827 q 513 961 618 961 q 243 849 364 961 q 122 571 122 737 q 270 198 122 359 q 602 37 418 37 m 696 1069 q 652 1087 670 1069 q 633 1132 633 1105 q 653 1179 633 1162 q 696 1196 672 1196 q 740 1177 722 1196 q 759 1132 759 1158 q 742 1088 759 1107 q 696 1069 724 1069 m 433 1069 q 389 1088 406 1069 q 371 1132 371 1106 q 390 1178 371 1161 q 433 1196 409 1196 q 477 1177 458 1196 q 496 1132 496 1159 q 477 1087 496 1105 q 433 1069 457 1069 z "},"Ü":{"ha":1042,"x_min":56,"x_max":985,"o":"m 985 0 l 796 0 l 796 154 q 452 -7 652 -7 q 216 77 303 -7 q 129 307 129 160 l 129 905 q 116 974 129 960 q 56 989 103 989 l 56 999 l 321 999 l 321 989 q 261 976 279 989 q 244 913 244 962 l 244 364 q 325 118 244 192 q 509 45 406 45 q 796 191 671 45 l 796 867 q 781 972 796 956 q 732 989 765 989 l 722 989 l 722 999 l 985 999 l 985 989 q 923 972 936 986 q 911 921 911 959 l 911 107 q 916 44 911 59 q 935 19 920 29 q 985 9 949 9 l 985 0 m 653 1069 q 608 1087 627 1069 q 590 1132 590 1105 q 609 1179 590 1162 q 653 1196 629 1196 q 697 1177 678 1196 q 715 1132 715 1158 q 698 1088 715 1107 q 653 1069 681 1069 m 390 1069 q 345 1088 363 1069 q 328 1132 328 1106 q 347 1178 328 1161 q 390 1196 366 1196 q 434 1177 414 1196 q 453 1132 453 1159 q 433 1087 453 1105 q 390 1069 414 1069 z "},"á":{"ha":956,"x_min":7,"x_max":949,"o":"m 581 460 l 289 460 l 138 82 q 122 32 122 41 q 155 9 122 9 l 155 0 l 7 0 l 7 9 q 57 24 37 9 q 102 100 77 39 l 464 1014 l 481 1014 l 838 131 q 865 67 838 124 q 949 9 892 9 l 949 0 l 715 0 l 715 9 q 747 35 747 9 q 732 89 747 52 q 727 98 729 92 q 725 104 726 104 l 581 460 m 298 488 l 568 488 l 433 828 l 298 488 m 486 1278 l 608 1278 l 403 1068 l 371 1068 l 486 1278 z "},"à":{"ha":956,"x_min":7,"x_max":949,"o":"m 581 460 l 289 460 l 138 82 q 122 32 122 41 q 155 9 122 9 l 155 0 l 7 0 l 7 9 q 57 24 37 9 q 102 100 77 39 l 464 1014 l 481 1014 l 838 131 q 865 67 838 124 q 949 9 892 9 l 949 0 l 715 0 l 715 9 q 747 35 747 9 q 732 89 747 52 q 727 98 729 92 q 725 104 726 104 l 581 460 m 298 488 l 568 488 l 433 828 l 298 488 m 349 1278 l 471 1278 l 586 1068 l 554 1068 l 349 1278 z "},"â":{"ha":956,"x_min":7,"x_max":949,"o":"m 581 460 l 289 460 l 138 82 q 122 32 122 41 q 155 9 122 9 l 155 0 l 7 0 l 7 9 q 57 24 37 9 q 102 100 77 39 l 464 1014 l 481 1014 l 838 131 q 865 67 838 124 q 949 9 892 9 l 949 0 l 715 0 l 715 9 q 747 35 747 9 q 732 89 747 52 q 727 98 729 92 q 725 104 726 104 l 581 460 m 298 488 l 568 488 l 433 828 l 298 488 m 515 1278 l 694 1068 l 663 1068 l 479 1198 l 294 1068 l 262 1068 l 441 1278 l 515 1278 z "},"ä":{"ha":956,"x_min":7,"x_max":949,"o":"m 581 460 l 289 460 l 138 82 q 122 32 122 41 q 155 9 122 9 l 155 0 l 7 0 l 7 9 q 57 24 37 9 q 102 100 77 39 l 464 1014 l 481 1014 l 838 131 q 865 67 838 124 q 949 9 892 9 l 949 0 l 715 0 l 715 9 q 747 35 747 9 q 732 89 747 52 q 727 98 729 92 q 725 104 726 104 l 581 460 m 298 488 l 568 488 l 433 828 l 298 488 m 610 1069 q 566 1087 584 1069 q 547 1132 547 1105 q 567 1179 547 1162 q 610 1196 586 1196 q 654 1177 635 1196 q 673 1132 673 1158 q 655 1088 673 1107 q 610 1069 638 1069 m 347 1069 q 302 1088 320 1069 q 285 1132 285 1106 q 304 1178 285 1161 q 347 1196 323 1196 q 391 1177 372 1196 q 410 1132 410 1159 q 391 1087 410 1105 q 347 1069 371 1069 z "},"ã":{"ha":956,"x_min":7,"x_max":949,"o":"m 581 460 l 289 460 l 138 82 q 122 32 122 41 q 155 9 122 9 l 155 0 l 7 0 l 7 9 q 57 24 37 9 q 102 100 77 39 l 464 1014 l 481 1014 l 838 131 q 865 67 838 124 q 949 9 892 9 l 949 0 l 715 0 l 715 9 q 747 35 747 9 q 732 89 747 52 q 727 98 729 92 q 725 104 726 104 l 581 460 m 298 488 l 568 488 l 433 828 l 298 488 m 685 1214 l 713 1214 q 670 1111 714 1152 q 564 1069 625 1069 q 465 1097 519 1069 q 391 1134 410 1125 q 349 1143 371 1143 q 299 1125 320 1143 q 277 1069 279 1106 l 248 1069 q 290 1175 246 1137 q 389 1214 333 1214 q 430 1208 408 1214 q 514 1171 452 1202 q 604 1140 575 1140 q 685 1214 668 1140 z "},"å":{"ha":956,"x_min":7,"x_max":949,"o":"m 581 460 l 289 460 l 138 82 q 122 32 122 41 q 155 9 122 9 l 155 0 l 7 0 l 7 9 q 57 24 37 9 q 102 100 77 39 l 464 1014 l 481 1014 l 838 131 q 865 67 838 124 q 949 9 892 9 l 949 0 l 715 0 l 715 9 q 747 35 747 9 q 732 89 747 52 q 727 98 729 92 q 725 104 726 104 l 581 460 m 298 488 l 568 488 l 433 828 l 298 488 m 478 1068 q 401 1100 433 1068 q 368 1179 368 1133 q 400 1257 368 1224 q 478 1289 432 1289 q 556 1258 524 1289 q 589 1179 589 1226 q 558 1101 589 1134 q 478 1068 527 1068 m 478 1258 q 423 1235 447 1258 q 399 1179 399 1212 q 422 1124 399 1147 q 478 1100 446 1100 q 536 1123 513 1100 q 559 1179 559 1146 q 535 1236 559 1213 q 478 1258 512 1258 z "},"ç":{"ha":1071,"x_min":50,"x_max":1060,"o":"m 593 -14 l 574 -52 q 671 -158 671 -83 q 604 -264 671 -222 q 429 -300 537 -306 l 429 -272 q 568 -240 536 -269 q 600 -183 600 -212 q 493 -111 600 -117 q 558 -14 536 -47 q 174 144 298 0 q 50 478 50 288 q 120 742 50 615 q 320 941 189 868 q 619 1014 451 1014 q 797 989 725 1014 l 911 950 q 914 949 913 949 l 951 843 l 942 843 q 804 942 889 897 q 600 987 719 987 q 358 930 464 987 q 198 774 252 872 q 144 572 144 677 q 200 328 144 466 q 377 100 256 189 q 669 11 498 11 q 889 46 781 11 q 1051 144 998 82 l 1060 142 l 990 35 q 755 -9 825 -1 q 593 -14 685 -18 z "},"é":{"ha":753,"x_min":54,"x_max":737,"o":"m 54 987 l 54 999 l 682 999 l 682 861 l 672 861 q 638 951 652 938 q 570 965 624 965 l 240 965 l 240 517 l 546 517 q 604 525 591 517 q 616 550 616 534 l 627 550 l 627 456 l 616 456 q 601 482 613 475 q 554 489 588 489 l 240 489 l 240 180 q 253 80 240 111 q 294 41 266 49 q 379 33 322 33 l 555 33 q 663 39 640 33 q 703 62 686 45 q 728 138 719 79 l 737 138 l 737 0 l 54 0 l 54 9 q 107 23 89 12 q 125 81 125 34 l 125 888 q 115 965 125 943 q 54 987 106 987 m 412 1278 l 534 1278 l 329 1068 l 297 1068 l 412 1278 z "},"è":{"ha":753,"x_min":54,"x_max":737,"o":"m 54 987 l 54 999 l 682 999 l 682 861 l 672 861 q 638 951 652 938 q 570 965 624 965 l 240 965 l 240 517 l 546 517 q 604 525 591 517 q 616 550 616 534 l 627 550 l 627 456 l 616 456 q 601 482 613 475 q 554 489 588 489 l 240 489 l 240 180 q 253 80 240 111 q 294 41 266 49 q 379 33 322 33 l 555 33 q 663 39 640 33 q 703 62 686 45 q 728 138 719 79 l 737 138 l 737 0 l 54 0 l 54 9 q 107 23 89 12 q 125 81 125 34 l 125 888 q 115 965 125 943 q 54 987 106 987 m 248 1278 l 370 1278 l 485 1068 l 453 1068 l 248 1278 z "},"ê":{"ha":753,"x_min":54,"x_max":737,"o":"m 54 987 l 54 999 l 682 999 l 682 861 l 672 861 q 638 951 652 938 q 570 965 624 965 l 240 965 l 240 517 l 546 517 q 604 525 591 517 q 616 550 616 534 l 627 550 l 627 456 l 616 456 q 601 482 613 475 q 554 489 588 489 l 240 489 l 240 180 q 253 80 240 111 q 294 41 266 49 q 379 33 322 33 l 555 33 q 663 39 640 33 q 703 62 686 45 q 728 138 719 79 l 737 138 l 737 0 l 54 0 l 54 9 q 107 23 89 12 q 125 81 125 34 l 125 888 q 115 965 125 943 q 54 987 106 987 m 414 1278 l 593 1068 l 563 1068 l 378 1198 l 194 1068 l 162 1068 l 341 1278 l 414 1278 z "},"ë":{"ha":753,"x_min":54,"x_max":737,"o":"m 54 987 l 54 999 l 682 999 l 682 861 l 672 861 q 638 951 652 938 q 570 965 624 965 l 240 965 l 240 517 l 546 517 q 604 525 591 517 q 616 550 616 534 l 627 550 l 627 456 l 616 456 q 601 482 613 475 q 554 489 588 489 l 240 489 l 240 180 q 253 80 240 111 q 294 41 266 49 q 379 33 322 33 l 555 33 q 663 39 640 33 q 703 62 686 45 q 728 138 719 79 l 737 138 l 737 0 l 54 0 l 54 9 q 107 23 89 12 q 125 81 125 34 l 125 888 q 115 965 125 943 q 54 987 106 987 m 509 1069 q 464 1087 482 1069 q 446 1132 446 1105 q 465 1179 446 1162 q 509 1196 484 1196 q 552 1177 534 1196 q 571 1132 571 1158 q 554 1088 571 1107 q 509 1069 536 1069 m 245 1069 q 201 1088 218 1069 q 183 1132 183 1106 q 202 1178 183 1161 q 245 1196 221 1196 q 289 1177 270 1196 q 309 1132 309 1159 q 289 1087 309 1105 q 245 1069 269 1069 z "},"í":{"ha":361,"x_min":47,"x_max":314,"o":"m 314 999 l 314 989 q 270 983 294 991 q 242 959 246 975 q 237 885 237 943 l 237 118 q 242 42 237 56 q 262 19 248 28 q 314 9 277 9 l 314 0 l 47 0 l 47 9 q 110 29 98 9 q 122 117 122 48 l 122 876 q 109 969 122 947 q 47 989 95 991 l 47 999 l 314 999 m 189 1278 l 311 1278 l 105 1068 l 73 1068 l 189 1278 z "},"ì":{"ha":361,"x_min":47,"x_max":314,"o":"m 314 999 l 314 989 q 270 983 294 991 q 242 959 246 975 q 237 885 237 943 l 237 118 q 242 42 237 56 q 262 19 248 28 q 314 9 277 9 l 314 0 l 47 0 l 47 9 q 110 29 98 9 q 122 117 122 48 l 122 876 q 109 969 122 947 q 47 989 95 991 l 47 999 l 314 999 m 52 1278 l 174 1278 l 289 1068 l 257 1068 l 52 1278 z "},"î":{"ha":361,"x_min":-35,"x_max":397,"o":"m 314 999 l 314 989 q 270 983 294 991 q 242 959 246 975 q 237 885 237 943 l 237 118 q 242 42 237 56 q 262 19 248 28 q 314 9 277 9 l 314 0 l 47 0 l 47 9 q 110 29 98 9 q 122 117 122 48 l 122 876 q 109 969 122 947 q 47 989 95 991 l 47 999 l 314 999 m 218 1278 l 397 1068 l 366 1068 l 182 1198 l -3 1068 l -35 1068 l 144 1278 l 218 1278 z "},"ï":{"ha":361,"x_min":47,"x_max":435,"o":"m 374 999 l 374 989 q 331 983 355 991 q 302 959 307 975 q 298 885 298 943 l 298 118 q 303 42 298 56 q 322 19 308 28 q 374 9 337 9 l 374 0 l 108 0 l 108 9 q 170 29 158 9 q 182 117 182 48 l 182 876 q 169 969 182 947 q 108 989 155 991 l 108 999 l 374 999 m 373 1069 q 328 1087 347 1069 q 310 1132 310 1105 q 329 1179 310 1162 q 373 1196 349 1196 q 417 1177 398 1196 q 435 1132 435 1158 q 418 1088 435 1107 q 373 1069 401 1069 m 110 1069 q 65 1088 83 1069 q 47 1132 47 1106 q 66 1178 47 1161 q 110 1196 85 1196 q 154 1177 134 1196 q 173 1132 173 1159 q 153 1087 173 1105 q 110 1069 134 1069 z "},"ñ":{"ha":1114,"x_min":9,"x_max":1067,"o":"m 873 999 l 1067 999 l 1067 989 q 1006 970 1023 987 q 989 897 989 953 l 989 -12 l 192 836 l 192 97 q 197 45 192 62 q 213 22 203 28 q 264 9 223 16 l 264 0 l 72 0 l 72 9 q 136 28 123 9 q 149 115 149 46 l 149 791 q 124 937 149 880 q 9 989 99 993 l 9 999 l 197 999 l 946 201 l 946 907 q 926 976 946 964 q 873 989 905 989 l 873 999 m 764 1214 l 791 1214 q 748 1111 793 1152 q 643 1069 704 1069 q 543 1097 597 1069 q 469 1134 489 1125 q 427 1143 450 1143 q 378 1125 399 1143 q 355 1069 357 1106 l 326 1069 q 368 1175 325 1137 q 468 1214 412 1214 q 509 1208 486 1214 q 592 1171 531 1202 q 683 1140 654 1140 q 764 1214 747 1140 z "},"ó":{"ha":1129,"x_min":46,"x_max":1083,"o":"m 606 1014 q 949 886 816 1014 q 1083 567 1083 758 q 928 153 1083 321 q 518 -16 774 -16 q 178 120 311 -16 q 46 446 46 256 q 110 709 46 574 q 302 929 174 844 q 606 1014 430 1014 m 602 37 q 805 93 705 37 q 963 245 905 148 q 1021 444 1021 342 q 943 708 1021 589 q 742 894 865 827 q 513 961 618 961 q 243 849 364 961 q 122 571 122 737 q 270 198 122 359 q 602 37 418 37 m 572 1278 l 694 1278 l 489 1068 l 457 1068 l 572 1278 z "},"ò":{"ha":1129,"x_min":46,"x_max":1083,"o":"m 606 1014 q 949 886 816 1014 q 1083 567 1083 758 q 928 153 1083 321 q 518 -16 774 -16 q 178 120 311 -16 q 46 446 46 256 q 110 709 46 574 q 302 929 174 844 q 606 1014 430 1014 m 602 37 q 805 93 705 37 q 963 245 905 148 q 1021 444 1021 342 q 943 708 1021 589 q 742 894 865 827 q 513 961 618 961 q 243 849 364 961 q 122 571 122 737 q 270 198 122 359 q 602 37 418 37 m 435 1278 l 557 1278 l 673 1068 l 641 1068 l 435 1278 z "},"ô":{"ha":1129,"x_min":46,"x_max":1083,"o":"m 606 1014 q 949 886 816 1014 q 1083 567 1083 758 q 928 153 1083 321 q 518 -16 774 -16 q 178 120 311 -16 q 46 446 46 256 q 110 709 46 574 q 302 929 174 844 q 606 1014 430 1014 m 602 37 q 805 93 705 37 q 963 245 905 148 q 1021 444 1021 342 q 943 708 1021 589 q 742 894 865 827 q 513 961 618 961 q 243 849 364 961 q 122 571 122 737 q 270 198 122 359 q 602 37 418 37 m 601 1278 l 780 1068 l 749 1068 l 565 1198 l 380 1068 l 349 1068 l 528 1278 l 601 1278 z "},"ö":{"ha":1129,"x_min":46,"x_max":1083,"o":"m 606 1014 q 949 886 816 1014 q 1083 567 1083 758 q 928 153 1083 321 q 518 -16 774 -16 q 178 120 311 -16 q 46 446 46 256 q 110 709 46 574 q 302 929 174 844 q 606 1014 430 1014 m 602 37 q 805 93 705 37 q 963 245 905 148 q 1021 444 1021 342 q 943 708 1021 589 q 742 894 865 827 q 513 961 618 961 q 243 849 364 961 q 122 571 122 737 q 270 198 122 359 q 602 37 418 37 m 696 1069 q 652 1087 670 1069 q 633 1132 633 1105 q 653 1179 633 1162 q 696 1196 672 1196 q 740 1177 722 1196 q 759 1132 759 1158 q 742 1088 759 1107 q 696 1069 724 1069 m 433 1069 q 389 1088 406 1069 q 371 1132 371 1106 q 390 1178 371 1161 q 433 1196 409 1196 q 477 1177 458 1196 q 496 1132 496 1159 q 477 1087 496 1105 q 433 1069 457 1069 z "},"õ":{"ha":1129,"x_min":46,"x_max":1083,"o":"m 606 1014 q 949 886 816 1014 q 1083 567 1083 758 q 928 153 1083 321 q 518 -16 774 -16 q 178 120 311 -16 q 46 446 46 256 q 110 709 46 574 q 302 929 174 844 q 606 1014 430 1014 m 602 37 q 805 93 705 37 q 963 245 905 148 q 1021 444 1021 342 q 943 708 1021 589 q 742 894 865 827 q 513 961 618 961 q 243 849 364 961 q 122 571 122 737 q 270 198 122 359 q 602 37 418 37 m 771 1214 l 799 1214 q 756 1111 800 1152 q 650 1069 711 1069 q 551 1097 605 1069 q 477 1134 496 1125 q 435 1143 457 1143 q 386 1125 406 1143 q 363 1069 365 1106 l 334 1069 q 376 1175 332 1137 q 475 1214 419 1214 q 516 1208 494 1214 q 600 1171 538 1202 q 690 1140 661 1140 q 771 1214 754 1140 z "},"ú":{"ha":1042,"x_min":56,"x_max":985,"o":"m 985 0 l 796 0 l 796 154 q 452 -7 652 -7 q 216 77 303 -7 q 129 307 129 160 l 129 905 q 116 974 129 960 q 56 989 103 989 l 56 999 l 321 999 l 321 989 q 261 976 279 989 q 244 913 244 962 l 244 364 q 325 118 244 192 q 509 45 406 45 q 796 191 671 45 l 796 867 q 781 972 796 956 q 732 989 765 989 l 722 989 l 722 999 l 985 999 l 985 989 q 923 972 936 986 q 911 921 911 959 l 911 107 q 916 44 911 59 q 935 19 920 29 q 985 9 949 9 l 985 0 m 529 1278 l 651 1278 l 446 1068 l 414 1068 l 529 1278 z "},"ù":{"ha":1042,"x_min":56,"x_max":985,"o":"m 985 0 l 796 0 l 796 154 q 452 -7 652 -7 q 216 77 303 -7 q 129 307 129 160 l 129 905 q 116 974 129 960 q 56 989 103 989 l 56 999 l 321 999 l 321 989 q 261 976 279 989 q 244 913 244 962 l 244 364 q 325 118 244 192 q 509 45 406 45 q 796 191 671 45 l 796 867 q 781 972 796 956 q 732 989 765 989 l 722 989 l 722 999 l 985 999 l 985 989 q 923 972 936 986 q 911 921 911 959 l 911 107 q 916 44 911 59 q 935 19 920 29 q 985 9 949 9 l 985 0 m 392 1278 l 514 1278 l 629 1068 l 597 1068 l 392 1278 z "},"û":{"ha":1042,"x_min":56,"x_max":985,"o":"m 985 0 l 796 0 l 796 154 q 452 -7 652 -7 q 216 77 303 -7 q 129 307 129 160 l 129 905 q 116 974 129 960 q 56 989 103 989 l 56 999 l 321 999 l 321 989 q 261 976 279 989 q 244 913 244 962 l 244 364 q 325 118 244 192 q 509 45 406 45 q 796 191 671 45 l 796 867 q 781 972 796 956 q 732 989 765 989 l 722 989 l 722 999 l 985 999 l 985 989 q 923 972 936 986 q 911 921 911 959 l 911 107 q 916 44 911 59 q 935 19 920 29 q 985 9 949 9 l 985 0 m 558 1278 l 737 1068 l 707 1068 l 522 1198 l 338 1068 l 306 1068 l 485 1278 l 558 1278 z "},"ü":{"ha":1042,"x_min":56,"x_max":985,"o":"m 985 0 l 796 0 l 796 154 q 452 -7 652 -7 q 216 77 303 -7 q 129 307 129 160 l 129 905 q 116 974 129 960 q 56 989 103 989 l 56 999 l 321 999 l 321 989 q 261 976 279 989 q 244 913 244 962 l 244 364 q 325 118 244 192 q 509 45 406 45 q 796 191 671 45 l 796 867 q 781 972 796 956 q 732 989 765 989 l 722 989 l 722 999 l 985 999 l 985 989 q 923 972 936 986 q 911 921 911 959 l 911 107 q 916 44 911 59 q 935 19 920 29 q 985 9 949 9 l 985 0 m 653 1069 q 608 1087 627 1069 q 590 1132 590 1105 q 609 1179 590 1162 q 653 1196 629 1196 q 697 1177 678 1196 q 715 1132 715 1158 q 698 1088 715 1107 q 653 1069 681 1069 m 390 1069 q 345 1088 363 1069 q 328 1132 328 1106 q 347 1178 328 1161 q 390 1196 366 1196 q 434 1177 414 1196 q 453 1132 453 1159 q 433 1087 453 1105 q 390 1069 414 1069 z "},"†":{"ha":525,"x_min":20,"x_max":501,"o":"m 318 999 l 297 700 l 374 700 q 430 705 396 701 q 472 718 464 709 q 482 734 481 726 q 485 743 483 743 q 501 746 486 747 l 501 644 l 293 644 l 277 302 q 249 -87 267 81 q 245 -161 245 -114 l 245 -187 l 233 -187 q 222 -21 232 -132 q 213 439 213 91 q 211 644 213 566 l 147 644 q 89 640 123 644 q 47 627 55 635 q 40 610 40 618 q 37 602 39 602 q 20 597 35 599 l 20 700 l 208 700 q 201 832 208 736 q 189 950 194 928 q 172 979 183 971 q 132 986 161 986 l 132 999 l 318 999 z "},"°":{"ha":555,"x_min":69,"x_max":486,"o":"m 278 951 q 425 890 364 951 q 486 743 486 829 q 426 596 486 659 q 278 534 366 534 q 131 596 192 534 q 69 743 69 658 q 131 891 69 831 q 278 951 193 951 m 278 590 q 386 635 340 590 q 431 743 431 680 q 384 851 431 807 q 277 896 338 896 q 170 852 214 896 q 125 743 125 808 q 170 635 125 680 q 278 590 214 590 z "},"¢":{"ha":753,"x_min":58,"x_max":703,"o":"m 224 -175 l 197 -165 l 272 7 q 130 93 202 29 q 58 301 58 157 q 159 549 58 449 q 422 648 259 648 q 541 631 482 648 l 597 761 l 621 750 l 567 624 q 623 599 597 612 q 650 505 628 583 l 640 504 q 551 586 600 559 l 319 50 q 467 17 384 17 q 693 118 623 17 l 703 114 q 657 20 666 35 q 421 -12 549 -12 q 298 0 351 -12 l 224 -175 m 297 65 l 526 599 q 408 623 477 623 q 212 550 285 623 q 139 378 139 477 q 186 198 139 288 q 297 65 233 108 z "},"£":{"ha":766,"x_min":21,"x_max":751,"o":"m 136 400 l 21 400 l 21 429 l 136 429 l 136 647 q 222 922 136 829 q 435 1015 308 1015 q 665 942 549 1015 l 703 806 l 692 804 q 439 987 580 987 q 298 918 345 987 q 252 726 252 848 l 252 428 l 529 428 l 529 400 l 252 400 l 252 184 q 268 93 252 122 q 327 45 285 63 q 446 28 368 28 l 558 28 q 656 41 631 28 q 695 69 681 55 q 727 124 710 83 q 743 240 743 165 l 751 240 l 751 0 l 50 0 l 50 8 q 125 30 114 11 q 136 90 136 50 l 136 400 z "},"§":{"ha":665,"x_min":35,"x_max":635,"o":"m 602 144 q 635 9 635 90 q 622 -79 635 -37 q 582 -158 609 -121 q 520 -221 554 -196 q 458 -254 486 -247 q 377 -267 431 -260 q 301 -273 323 -273 l 35 -273 l 35 17 l 45 17 q 113 -185 46 -128 q 319 -241 180 -241 q 512 -182 445 -241 q 579 -36 579 -122 q 559 48 579 9 q 493 115 538 86 q 332 184 448 144 q 171 256 215 224 q 96 345 126 287 q 65 467 65 402 q 103 606 65 543 q 65 741 65 668 q 145 935 65 857 q 354 1014 224 1014 q 463 1002 404 1014 q 528 987 521 991 q 533 986 530 986 l 581 861 l 572 860 q 535 900 572 861 q 449 961 497 939 q 339 982 400 982 q 177 923 237 982 q 117 782 117 865 q 145 686 117 727 q 262 610 173 645 q 473 532 416 558 q 582 444 530 506 q 635 283 635 381 q 602 144 635 205 m 129 568 q 117 509 117 532 q 144 413 117 454 q 262 336 172 372 q 475 258 423 283 q 571 183 527 233 q 579 237 579 212 q 556 325 579 289 q 492 389 533 361 q 343 454 450 416 q 196 513 235 491 q 129 568 156 534 z "},"•":{"ha":486,"x_min":74,"x_max":414,"o":"m 243 629 q 365 579 316 629 q 414 460 414 529 q 365 340 414 391 q 243 289 315 289 q 123 340 173 289 q 74 460 74 391 q 122 577 74 526 q 243 629 170 629 z "},"¶":{"ha":839,"x_min":94,"x_max":758,"o":"m 739 987 q 661 966 677 985 l 661 -31 q 670 -105 661 -87 q 695 -129 679 -123 q 758 -134 711 -134 l 758 -143 l 364 -143 l 364 -132 q 406 -122 387 -129 q 434 -105 426 -115 q 443 -46 443 -95 l 443 427 q 190 528 286 450 q 94 728 94 606 q 183 930 94 862 q 441 999 273 999 l 739 999 l 739 987 m 485 966 l 485 -31 q 495 -111 485 -89 q 547 -132 506 -132 q 588 -124 568 -132 q 613 -102 608 -115 q 619 -46 619 -90 l 619 966 l 485 966 z "},"ß":{"ha":1331,"x_min":35,"x_max":1300,"o":"m 533 986 l 581 861 l 572 860 q 569 864 572 861 q 562 871 566 867 q 459 956 512 930 q 339 982 406 982 q 176 923 236 982 q 117 782 117 864 q 144 687 117 730 q 264 610 172 644 q 458 540 413 558 q 547 483 503 522 q 613 395 591 444 q 635 283 635 347 q 617 178 635 226 q 559 87 600 130 q 484 30 519 45 q 377 7 449 14 q 301 0 304 0 l 35 0 l 35 290 l 45 290 q 113 89 46 146 q 319 32 179 32 q 513 92 448 32 q 579 237 579 153 q 552 332 579 292 q 479 397 525 372 q 323 460 433 422 q 170 530 214 498 q 95 619 125 562 q 65 742 65 677 q 145 935 65 857 q 354 1014 224 1014 q 473 1001 413 1014 q 533 986 532 988 m 1198 986 l 1246 861 l 1238 860 q 1234 864 1238 861 q 1227 871 1231 867 q 1124 956 1177 930 q 1004 982 1072 982 q 842 923 901 982 q 782 782 782 864 q 810 687 782 730 q 929 610 838 644 q 1123 540 1078 558 q 1212 483 1168 522 q 1278 395 1257 444 q 1300 283 1300 347 q 1282 178 1300 226 q 1225 87 1265 130 q 1149 30 1185 45 q 1042 7 1114 14 q 966 0 970 0 l 700 0 l 700 290 l 710 290 q 778 89 711 146 q 985 32 844 32 q 1179 92 1113 32 q 1244 237 1244 153 q 1217 332 1244 292 q 1144 397 1190 372 q 989 460 1098 422 q 835 530 880 498 q 760 619 790 562 q 730 742 730 677 q 810 935 730 857 q 1019 1014 890 1014 q 1138 1001 1078 1014 q 1198 986 1198 988 z "},"®":{"ha":1055,"x_min":47,"x_max":1008,"o":"m 47 460 q 188 799 47 658 q 528 940 329 940 q 866 800 724 940 q 1008 460 1008 660 q 868 122 1008 264 q 528 -21 728 -21 q 187 122 327 -21 q 47 460 47 264 m 966 460 q 908 680 966 577 q 746 841 849 783 q 528 899 644 899 q 218 771 348 899 q 89 460 89 644 q 218 149 89 277 q 528 21 348 21 q 838 150 709 21 q 966 460 966 278 m 261 755 l 524 755 q 671 713 616 755 q 725 604 725 670 q 574 453 725 492 l 717 252 q 764 201 747 210 q 799 192 782 193 l 799 168 l 673 168 l 473 443 l 422 443 l 422 283 q 426 220 422 232 q 445 200 430 209 q 503 192 460 192 l 503 168 l 254 168 l 254 192 q 311 206 296 192 q 325 285 325 220 l 325 640 q 312 718 325 705 q 261 732 300 732 l 261 755 m 422 715 l 422 472 l 443 472 q 565 500 515 472 q 615 596 615 528 q 577 687 615 650 q 479 725 540 725 q 422 715 450 725 z "},"©":{"ha":1055,"x_min":47,"x_max":1008,"o":"m 47 460 q 188 799 47 658 q 528 940 329 940 q 866 800 724 940 q 1008 460 1008 660 q 868 122 1008 264 q 528 -21 728 -21 q 187 122 327 -21 q 47 460 47 264 m 966 460 q 908 680 966 577 q 746 841 849 783 q 528 899 644 899 q 218 771 348 899 q 89 460 89 644 q 218 149 89 277 q 528 21 348 21 q 838 150 709 21 q 966 460 966 278 m 765 770 l 779 579 l 753 579 q 547 739 703 739 q 388 669 446 739 q 329 475 329 598 q 383 272 329 347 q 554 196 437 196 q 765 306 686 196 l 790 292 q 530 154 696 154 q 304 244 391 154 q 216 456 216 335 q 313 679 216 588 q 554 770 409 770 q 610 765 587 770 l 705 739 q 739 770 728 739 l 765 770 z "},"™":{"ha":1361,"x_min":21,"x_max":1337,"o":"m 35 1034 l 529 1034 l 543 897 l 521 897 q 480 974 513 955 q 389 993 447 993 l 339 993 l 339 600 q 352 528 339 544 q 410 510 366 513 l 410 486 l 155 486 l 155 510 q 208 525 191 515 q 224 599 224 534 l 224 993 l 172 993 q 75 966 99 993 q 43 897 51 940 l 21 897 l 35 1034 m 785 1034 l 970 646 l 1149 1034 l 1337 1034 l 1337 1008 q 1275 991 1286 1007 q 1264 917 1264 975 l 1264 600 q 1278 526 1264 541 q 1337 510 1291 511 l 1337 486 l 1068 486 l 1068 510 q 1133 526 1116 511 q 1149 599 1149 540 l 1149 932 l 1146 932 l 942 486 l 920 486 l 713 926 l 710 926 l 710 600 q 720 533 710 557 q 774 510 729 510 l 799 510 l 799 486 l 590 486 l 590 510 q 653 527 640 513 q 667 599 667 541 l 667 916 q 657 989 667 970 q 590 1008 647 1008 l 590 1034 l 785 1034 z "},"´":{"ha":463,"x_min":123,"x_max":361,"o":"m 239 1278 l 361 1278 l 155 1068 l 123 1068 l 239 1278 z "},"¨":{"ha":463,"x_min":37,"x_max":425,"o":"m 363 1069 q 318 1087 336 1069 q 300 1132 300 1105 q 319 1179 300 1162 q 363 1196 338 1196 q 407 1177 388 1196 q 425 1132 425 1158 q 408 1088 425 1107 q 363 1069 391 1069 m 100 1069 q 55 1088 73 1069 q 37 1132 37 1106 q 56 1178 37 1161 q 100 1196 75 1196 q 143 1177 124 1196 q 163 1132 163 1159 q 143 1087 163 1105 q 100 1069 123 1069 z "},"≠":{"ha":762,"x_min":21,"x_max":750,"o":"m 750 189 l 329 189 l 204 -35 l 136 4 l 239 189 l 21 189 l 21 265 l 282 265 l 389 458 l 21 458 l 21 534 l 432 534 l 558 762 l 627 724 l 521 534 l 750 534 l 750 458 l 479 458 l 371 265 l 750 265 l 750 189 z "},"Æ":{"ha":1202,"x_min":5,"x_max":1189,"o":"m 579 492 l 351 492 l 129 64 q 119 35 119 46 q 153 11 119 9 l 153 0 l 5 0 l 5 11 q 79 58 51 14 l 571 999 l 1132 999 l 1132 860 l 1122 860 q 1089 948 1105 932 q 1021 965 1074 965 l 694 965 l 694 519 l 991 519 q 1051 525 1036 519 q 1068 553 1065 531 l 1078 553 l 1078 457 l 1068 457 q 1038 488 1067 484 q 974 492 1009 492 l 694 492 l 694 231 q 719 65 694 97 q 812 33 743 33 l 1031 33 q 1119 41 1094 33 q 1159 71 1143 49 q 1179 135 1174 92 l 1189 135 l 1189 0 l 509 0 l 509 9 q 566 30 555 7 q 578 104 577 52 l 579 180 l 579 492 m 367 519 l 579 519 l 579 928 l 576 928 l 367 519 z "},"Ø":{"ha":1129,"x_min":46,"x_max":1083,"o":"m 916 917 l 1003 1015 l 1022 999 l 935 900 q 1034 775 985 857 q 1083 566 1083 694 q 1016 278 1083 415 q 819 62 948 140 q 518 -17 689 -17 q 216 85 340 -17 q 215 86 215 85 l 125 -17 l 104 0 l 195 103 q 46 444 46 237 q 111 711 46 576 q 304 930 176 846 q 606 1015 432 1015 q 916 917 787 1015 m 273 192 l 836 827 q 832 829 835 829 q 514 961 667 961 q 331 912 425 961 q 180 773 237 864 q 122 568 122 682 q 273 192 122 363 m 856 810 l 293 174 q 443 69 361 104 q 603 35 524 35 q 894 156 767 35 q 1021 453 1021 277 q 856 810 1021 656 z "},"∞":{"ha":990,"x_min":36,"x_max":954,"o":"m 443 453 q 551 604 491 568 q 694 640 610 640 q 879 561 804 640 q 954 357 954 482 q 879 151 954 231 q 717 72 803 72 q 601 115 652 72 q 489 267 550 157 q 269 109 410 109 q 102 179 168 109 q 36 358 36 250 q 96 536 36 465 q 244 607 157 607 q 345 578 298 607 q 443 453 392 550 m 509 315 q 600 179 552 222 q 720 136 648 136 q 860 198 805 136 q 916 357 916 260 q 859 519 916 452 q 724 587 802 587 q 657 573 686 587 q 607 531 629 558 q 564 452 585 503 l 509 315 m 416 378 l 424 400 q 243 546 359 546 q 121 494 168 546 q 74 359 74 442 q 119 219 74 276 q 229 161 164 161 q 331 205 285 161 q 416 378 376 250 z "},"±":{"ha":762,"x_min":14,"x_max":749,"o":"m 14 567 l 343 567 l 343 896 l 419 896 l 419 567 l 749 567 l 749 490 l 419 490 l 419 161 l 343 161 l 343 490 l 14 490 l 14 567 m 749 0 l 14 0 l 14 77 l 749 77 l 749 0 z "},"≤":{"ha":762,"x_min":40,"x_max":730,"o":"m 730 163 l 40 482 l 40 568 l 730 888 l 730 802 l 129 525 l 730 249 l 730 163 m 730 0 l 40 0 l 40 76 l 730 76 l 730 0 z "},"≥":{"ha":762,"x_min":40,"x_max":730,"o":"m 730 482 l 40 163 l 40 249 l 642 525 l 40 802 l 40 888 l 730 568 l 730 482 m 730 0 l 40 0 l 40 76 l 730 76 l 730 0 z "},"¥":{"ha":796,"x_min":8,"x_max":787,"o":"m 321 551 l 94 926 q 8 989 56 991 l 8 999 l 244 999 l 244 989 q 211 964 211 989 q 228 924 211 951 l 429 591 l 650 926 q 663 946 656 932 q 671 966 671 961 q 642 989 671 989 l 637 989 l 637 999 l 787 999 l 787 989 q 741 975 759 987 q 699 928 722 964 l 454 558 l 454 551 l 742 551 l 742 522 l 454 522 l 454 318 l 742 318 l 742 289 l 454 289 l 454 100 q 469 27 454 44 q 530 9 483 9 l 530 0 l 264 0 l 264 9 q 311 17 283 8 q 339 77 339 25 l 339 289 l 53 289 l 53 318 l 339 318 l 339 522 l 53 522 l 53 551 l 321 551 z "},"µ":{"ha":800,"x_min":49,"x_max":791,"o":"m 89 694 l 208 694 l 208 232 q 248 106 208 142 q 339 71 288 71 q 413 93 376 71 q 473 143 451 115 q 496 178 496 170 l 496 694 l 615 694 l 615 161 q 638 74 615 104 q 690 43 662 43 q 729 58 709 43 q 754 101 749 73 q 764 140 760 128 l 791 140 q 716 6 769 37 q 625 -24 663 -24 q 562 -8 587 -24 q 523 30 536 8 q 497 113 509 52 q 269 -24 397 -24 q 221 -15 246 -24 q 139 43 195 -5 l 139 11 q 161 -99 139 -26 q 184 -215 184 -173 q 163 -285 184 -260 q 117 -310 142 -310 q 69 -282 89 -310 q 49 -214 49 -254 q 69 -103 49 -180 q 89 11 89 -41 l 89 694 z "},"∂":{"ha":686,"x_min":45,"x_max":675,"o":"m 200 760 l 170 760 q 427 965 258 965 q 605 879 536 965 q 675 624 675 793 q 563 180 675 381 q 273 -21 452 -21 q 106 41 168 -21 q 45 207 45 102 q 158 492 45 369 q 418 615 271 615 q 629 486 568 615 l 632 486 q 639 612 639 584 q 576 800 639 731 q 404 868 513 868 q 200 760 273 868 m 618 427 q 425 579 563 579 q 231 450 304 579 q 158 179 158 321 q 195 62 158 106 q 292 18 231 18 q 481 129 384 18 q 618 427 578 239 z "},"∑":{"ha":990,"x_min":20,"x_max":965,"o":"m 965 161 q 928 -1 943 77 q 905 -150 913 -79 q 836 -139 863 -142 q 799 -135 809 -135 l 100 -135 q 60 -137 86 -135 q 20 -139 33 -139 l 504 414 l 22 1044 q 106 1037 70 1040 q 167 1035 142 1035 l 857 1035 l 865 814 l 838 814 q 802 909 817 883 q 747 954 787 936 q 696 968 726 963 q 625 972 666 972 l 260 972 l 639 475 l 231 4 l 746 4 q 866 39 832 4 q 933 161 901 75 l 965 161 z "},"∏":{"ha":1143,"x_min":35,"x_max":1116,"o":"m 1116 -140 l 689 -140 l 689 -109 q 797 -81 770 -109 q 824 4 824 -53 l 824 966 l 326 966 l 326 4 q 353 -81 326 -53 q 461 -109 380 -109 l 461 -140 l 35 -140 l 35 -109 q 143 -81 117 -109 q 170 4 170 -53 l 170 873 q 137 977 170 942 q 37 1011 104 1011 l 37 1043 l 1113 1043 l 1113 1011 q 1014 977 1046 1011 q 981 873 981 942 l 981 4 q 1007 -81 981 -53 q 1116 -109 1033 -109 l 1116 -140 z "},"π":{"ha":762,"x_min":14,"x_max":736,"o":"m 736 210 q 685 41 732 104 q 571 -22 637 -22 q 477 40 517 -22 q 437 231 437 102 q 438 285 437 259 q 441 334 439 311 l 465 557 l 309 557 q 242 53 268 134 q 153 -27 216 -27 q 103 -6 127 -27 q 79 50 79 15 q 129 137 79 81 q 183 239 178 193 l 224 557 l 158 557 q 105 544 131 557 q 66 513 79 530 l 37 469 l 14 469 q 95 624 47 572 q 207 676 144 676 l 725 676 l 725 557 l 550 557 q 537 394 542 475 q 533 231 533 313 q 559 140 533 175 q 623 106 585 106 q 673 125 647 106 q 703 176 699 144 q 706 199 705 191 q 707 210 707 208 l 736 210 z "},"∫":{"ha":380,"x_min":7,"x_max":408,"o":"m 408 1194 q 388 1150 408 1167 q 337 1133 368 1133 q 296 1150 312 1133 q 267 1167 281 1167 q 248 1157 254 1167 q 241 1128 241 1147 q 255 954 241 1105 q 268 581 268 804 q 248 99 268 238 q 194 -92 227 -39 q 148 -134 176 -120 q 90 -149 120 -149 q 32 -125 57 -149 q 7 -67 7 -101 q 24 -23 7 -41 q 68 -5 41 -5 q 112 -27 91 -5 q 142 -50 134 -50 q 169 -19 159 -50 q 179 85 179 11 q 175 218 179 110 q 171 600 171 327 q 182 1033 171 926 q 210 1179 194 1139 q 257 1249 230 1226 q 314 1272 284 1272 q 380 1250 353 1272 q 408 1194 408 1228 z "},"ª":{"ha":419,"x_min":31,"x_max":410,"o":"m 351 922 l 351 663 q 366 642 351 642 q 390 656 374 642 q 403 663 402 663 q 410 654 410 663 q 384 602 410 626 q 329 578 357 578 q 292 594 305 578 q 278 636 278 610 l 278 656 q 207 599 241 618 q 127 579 172 579 q 57 601 84 579 q 31 660 31 623 q 60 732 31 704 q 215 800 90 760 q 278 822 257 814 l 278 895 q 260 948 278 927 q 211 970 242 970 q 134 947 167 970 q 72 892 100 924 l 49 911 q 134 998 96 973 q 227 1023 173 1023 q 319 993 286 1023 q 351 922 351 962 m 278 688 l 278 798 q 138 731 165 755 q 111 681 111 707 q 129 645 111 659 q 167 632 146 632 q 278 688 220 632 z "},"º":{"ha":478,"x_min":26,"x_max":452,"o":"m 26 804 q 90 960 26 897 q 235 1023 153 1023 q 391 957 331 1023 q 452 798 452 890 q 389 637 452 702 q 241 572 326 572 q 88 642 150 572 q 26 804 26 711 m 378 764 q 331 913 378 848 q 224 978 285 978 q 133 938 166 978 q 100 838 100 899 q 148 686 100 751 q 260 621 197 621 q 343 661 308 621 q 378 764 378 702 z "},"Ω":{"ha":1067,"x_min":47,"x_max":1021,"o":"m 1021 0 l 612 0 l 634 211 q 787 347 743 251 q 831 559 831 442 q 759 812 831 713 q 534 911 686 911 q 310 812 382 911 q 237 559 237 713 q 281 347 237 442 q 435 211 326 251 l 457 0 l 47 0 l 47 225 l 68 225 q 95 160 79 180 q 160 140 111 140 l 379 140 l 376 179 q 145 329 215 223 q 75 554 75 435 q 205 843 75 730 q 534 956 336 956 q 863 843 733 956 q 994 554 994 730 q 924 329 994 435 q 692 179 854 223 l 690 140 l 909 140 q 974 160 958 140 q 1001 225 990 180 l 1021 225 l 1021 0 z "},"æ":{"ha":1202,"x_min":5,"x_max":1189,"o":"m 579 492 l 351 492 l 129 64 q 119 35 119 46 q 153 11 119 9 l 153 0 l 5 0 l 5 11 q 79 58 51 14 l 571 999 l 1132 999 l 1132 860 l 1122 860 q 1089 948 1105 932 q 1021 965 1074 965 l 694 965 l 694 519 l 991 519 q 1051 525 1036 519 q 1068 553 1065 531 l 1078 553 l 1078 457 l 1068 457 q 1038 488 1067 484 q 974 492 1009 492 l 694 492 l 694 231 q 719 65 694 97 q 812 33 743 33 l 1031 33 q 1119 41 1094 33 q 1159 71 1143 49 q 1179 135 1174 92 l 1189 135 l 1189 0 l 509 0 l 509 9 q 566 30 555 7 q 578 104 577 52 l 579 180 l 579 492 m 367 519 l 579 519 l 579 928 l 576 928 l 367 519 z "},"ø":{"ha":1129,"x_min":46,"x_max":1083,"o":"m 916 917 l 1003 1015 l 1022 999 l 935 900 q 1034 775 985 857 q 1083 566 1083 694 q 1016 278 1083 415 q 819 62 948 140 q 518 -17 689 -17 q 216 85 340 -17 q 215 86 215 85 l 125 -17 l 104 0 l 195 103 q 46 444 46 237 q 111 711 46 576 q 304 930 176 846 q 606 1015 432 1015 q 916 917 787 1015 m 273 192 l 836 827 q 832 829 835 829 q 514 961 667 961 q 331 912 425 961 q 180 773 237 864 q 122 568 122 682 q 273 192 122 363 m 856 810 l 293 174 q 443 69 361 104 q 603 35 524 35 q 894 156 767 35 q 1021 453 1021 277 q 856 810 1021 656 z "},"¿":{"ha":492,"x_min":11,"x_max":475,"o":"m 372 940 q 350 888 372 910 q 298 867 328 867 q 247 888 268 867 q 225 940 225 910 q 247 992 225 970 q 298 1014 268 1014 q 351 992 329 1014 q 372 940 372 971 m 307 737 l 321 387 q 163 321 223 372 q 103 187 103 271 q 150 65 103 119 q 275 11 197 11 q 386 43 334 11 q 464 139 438 76 l 475 139 l 443 21 q 277 -16 354 -16 q 80 54 149 -16 q 11 228 11 123 q 67 390 11 336 q 189 466 124 443 q 264 503 253 490 q 279 555 276 515 l 293 737 l 307 737 z "},"¡":{"ha":232,"x_min":39,"x_max":225,"o":"m 43 940 q 64 992 43 970 q 117 1014 85 1014 q 170 992 149 1014 q 191 940 191 970 q 169 888 191 910 q 117 867 148 867 q 65 889 87 867 q 43 940 43 911 m 39 0 l 74 375 l 97 542 l 107 635 q 111 708 111 674 l 111 734 l 123 734 q 133 562 126 661 q 147 320 140 463 q 160 111 154 178 q 175 28 166 44 q 225 12 183 12 l 225 0 l 39 0 z "},"¬":{"ha":990,"x_min":21,"x_max":945,"o":"m 21 323 l 21 400 l 945 400 l 945 0 l 868 0 l 868 323 l 21 323 z "},"√":{"ha":762,"x_min":14,"x_max":715,"o":"m 715 1267 l 507 -53 l 170 644 l 36 579 l 14 625 l 216 725 l 490 165 l 667 1274 l 715 1267 z "},"ƒ":{"ha":753,"x_min":7,"x_max":739,"o":"m 614 604 l 614 575 l 441 575 l 395 32 q 331 -220 380 -127 q 149 -314 282 -314 q 7 -288 74 -314 l 8 -107 l 17 -107 q 63 -242 28 -197 q 143 -286 97 -286 q 245 -214 216 -286 q 283 -35 274 -142 l 335 575 l 220 575 l 220 604 l 338 604 l 347 710 q 418 952 361 887 q 576 1017 476 1017 q 722 978 640 1017 l 739 842 l 728 842 q 582 987 680 987 q 504 952 530 987 q 469 867 477 918 q 456 754 460 816 l 443 604 l 614 604 z "},"≈":{"ha":762,"x_min":35,"x_max":728,"o":"m 693 593 l 728 593 q 663 431 713 488 q 536 375 612 375 q 330 454 471 375 q 187 507 236 507 q 66 380 86 507 l 35 380 q 98 542 48 485 q 221 599 148 599 q 294 586 253 599 q 446 513 334 572 q 576 471 526 471 q 693 593 674 471 m 693 330 l 728 330 q 663 169 713 225 q 536 113 612 113 q 354 178 471 113 q 187 244 237 244 q 66 118 86 244 l 35 118 q 98 278 48 222 q 221 335 148 335 q 297 320 253 335 q 446 250 341 306 q 576 208 526 208 q 693 330 674 208 z "},"∆":{"ha":850,"x_min":8,"x_max":844,"o":"m 453 956 l 844 0 l 8 0 l 453 956 m 403 718 l 100 68 l 672 68 l 403 718 z "},"«":{"ha":608,"x_min":37,"x_max":574,"o":"m 297 757 l 164 498 l 298 243 l 277 243 l 37 500 l 273 757 l 297 757 m 572 757 l 439 498 l 574 243 l 551 243 l 313 500 l 549 757 l 572 757 z "},"»":{"ha":608,"x_min":35,"x_max":571,"o":"m 311 243 l 444 501 l 310 757 l 332 757 l 571 500 l 335 243 l 311 243 m 36 243 l 170 501 l 35 757 l 57 757 l 296 500 l 60 243 l 36 243 z "},"…":{"ha":1389,"x_min":158,"x_max":1231,"o":"m 1083 60 q 1104 111 1083 89 q 1157 134 1125 134 q 1210 113 1188 134 q 1231 60 1231 92 q 1209 8 1231 29 q 1157 -14 1187 -14 q 1106 8 1128 -14 q 1083 60 1083 30 m 621 60 q 642 111 621 89 q 694 134 663 134 q 747 113 726 134 q 768 60 768 92 q 747 8 768 29 q 694 -14 725 -14 q 643 8 666 -14 q 621 60 621 30 m 158 60 q 179 111 158 89 q 232 134 201 134 q 284 113 263 134 q 306 60 306 92 q 284 8 306 29 q 232 -14 262 -14 q 181 8 203 -14 q 158 60 158 30 z "}," ":{"ha":404,"x_min":0,"x_max":0,"o":""},"À":{"ha":956,"x_min":7,"x_max":949,"o":"m 581 460 l 289 460 l 138 82 q 122 32 122 41 q 155 9 122 9 l 155 0 l 7 0 l 7 9 q 57 24 37 9 q 102 100 77 39 l 464 1014 l 481 1014 l 838 131 q 865 67 838 124 q 949 9 892 9 l 949 0 l 715 0 l 715 9 q 747 35 747 9 q 732 89 747 52 q 727 98 729 92 q 725 104 726 104 l 581 460 m 298 488 l 568 488 l 433 828 l 298 488 m 349 1278 l 471 1278 l 586 1068 l 554 1068 l 349 1278 z "},"Ã":{"ha":956,"x_min":7,"x_max":949,"o":"m 581 460 l 289 460 l 138 82 q 122 32 122 41 q 155 9 122 9 l 155 0 l 7 0 l 7 9 q 57 24 37 9 q 102 100 77 39 l 464 1014 l 481 1014 l 838 131 q 865 67 838 124 q 949 9 892 9 l 949 0 l 715 0 l 715 9 q 747 35 747 9 q 732 89 747 52 q 727 98 729 92 q 725 104 726 104 l 581 460 m 298 488 l 568 488 l 433 828 l 298 488 m 685 1214 l 713 1214 q 670 1111 714 1152 q 564 1069 625 1069 q 465 1097 519 1069 q 391 1134 410 1125 q 349 1143 371 1143 q 299 1125 320 1143 q 277 1069 279 1106 l 248 1069 q 290 1175 246 1137 q 389 1214 333 1214 q 430 1208 408 1214 q 514 1171 452 1202 q 604 1140 575 1140 q 685 1214 668 1140 z "},"Õ":{"ha":1129,"x_min":46,"x_max":1083,"o":"m 606 1014 q 949 886 816 1014 q 1083 567 1083 758 q 928 153 1083 321 q 518 -16 774 -16 q 178 120 311 -16 q 46 446 46 256 q 110 709 46 574 q 302 929 174 844 q 606 1014 430 1014 m 602 37 q 805 93 705 37 q 963 245 905 148 q 1021 444 1021 342 q 943 708 1021 589 q 742 894 865 827 q 513 961 618 961 q 243 849 364 961 q 122 571 122 737 q 270 198 122 359 q 602 37 418 37 m 771 1214 l 799 1214 q 756 1111 800 1152 q 650 1069 711 1069 q 551 1097 605 1069 q 477 1134 496 1125 q 435 1143 457 1143 q 386 1125 406 1143 q 363 1069 365 1106 l 334 1069 q 376 1175 332 1137 q 475 1214 419 1214 q 516 1208 494 1214 q 600 1171 538 1202 q 690 1140 661 1140 q 771 1214 754 1140 z "},"Œ":{"ha":1375,"x_min":50,"x_max":1361,"o":"m 1251 550 l 1251 456 l 1243 456 q 1224 484 1239 479 q 1177 489 1209 489 l 867 489 l 867 196 q 875 85 867 111 q 911 46 884 59 q 1018 33 938 33 l 1229 33 q 1315 51 1285 33 q 1353 138 1344 69 l 1361 138 l 1361 0 l 599 0 q 287 63 396 0 q 114 236 177 125 q 50 479 50 347 q 82 667 50 584 q 201 840 115 750 q 381 964 288 929 q 606 999 475 999 l 1308 999 l 1308 861 l 1299 861 q 1270 948 1284 931 q 1193 965 1255 965 l 867 965 l 867 517 l 1189 517 q 1243 550 1238 517 l 1251 550 m 751 178 l 751 844 q 746 925 751 899 q 724 961 741 950 q 650 972 707 972 q 465 951 541 972 q 321 879 388 930 q 212 735 254 827 q 170 522 170 644 q 300 164 170 302 q 628 26 431 26 l 653 26 q 734 63 717 26 q 751 178 751 100 z "},"œ":{"ha":1375,"x_min":50,"x_max":1361,"o":"m 1251 550 l 1251 456 l 1243 456 q 1224 484 1239 479 q 1177 489 1209 489 l 867 489 l 867 196 q 875 85 867 111 q 911 46 884 59 q 1018 33 938 33 l 1229 33 q 1315 51 1285 33 q 1353 138 1344 69 l 1361 138 l 1361 0 l 599 0 q 287 63 396 0 q 114 236 177 125 q 50 479 50 347 q 82 667 50 584 q 201 840 115 750 q 381 964 288 929 q 606 999 475 999 l 1308 999 l 1308 861 l 1299 861 q 1270 948 1284 931 q 1193 965 1255 965 l 867 965 l 867 517 l 1189 517 q 1243 550 1238 517 l 1251 550 m 751 178 l 751 844 q 746 925 751 899 q 724 961 741 950 q 650 972 707 972 q 465 951 541 972 q 321 879 388 930 q 212 735 254 827 q 170 522 170 644 q 300 164 170 302 q 628 26 431 26 l 653 26 q 734 63 717 26 q 751 178 751 100 z "},"–":{"ha":694,"x_min":-8,"x_max":703,"o":"m -8 528 l 703 528 l 703 472 l -8 472 l -8 528 z "},"—":{"ha":1389,"x_min":-8,"x_max":1397,"o":"m -8 528 l 1397 528 l 1397 472 l -8 472 l -8 528 z "},"“":{"ha":463,"x_min":25,"x_max":439,"o":"m 435 1014 l 439 1008 q 344 901 369 959 q 319 804 319 844 q 323 787 319 797 q 335 778 328 778 q 348 781 336 778 q 364 783 360 783 q 415 764 393 783 q 437 714 437 745 q 416 662 437 684 q 361 640 395 640 q 288 676 319 640 q 257 777 257 713 q 298 907 257 850 q 435 1014 339 964 m 203 1014 l 208 1008 q 113 902 137 959 q 89 804 89 845 q 103 778 89 778 q 116 781 104 778 q 132 783 128 783 q 183 764 161 783 q 205 714 205 744 q 184 662 205 684 q 129 640 163 640 q 55 679 85 640 q 25 777 25 717 q 66 907 25 850 q 203 1014 107 964 z "},"”":{"ha":463,"x_min":24,"x_max":437,"o":"m 28 640 l 24 646 q 121 756 98 701 q 143 850 143 811 q 127 876 143 876 q 115 873 125 876 q 98 871 106 871 q 47 891 68 871 q 25 940 25 911 q 46 991 25 969 q 102 1014 66 1014 q 175 978 144 1014 q 205 878 205 942 q 166 749 205 806 q 28 640 127 692 m 260 640 l 254 646 q 344 742 314 687 q 374 850 374 798 q 359 876 374 876 q 347 873 357 876 q 330 871 338 871 q 279 891 300 871 q 257 940 257 911 q 278 991 257 969 q 334 1014 298 1014 q 406 978 375 1014 q 437 878 437 943 q 398 749 437 806 q 260 640 359 692 z "},"‘":{"ha":232,"x_min":26,"x_max":208,"o":"m 204 1014 l 208 1008 q 114 901 138 959 q 89 804 89 844 q 93 787 89 797 q 104 778 97 778 q 118 781 105 778 q 134 783 131 783 q 184 764 162 783 q 207 714 207 745 q 187 663 207 686 q 131 640 167 640 q 58 676 90 640 q 26 777 26 712 q 67 907 26 850 q 204 1014 109 964 z "},"’":{"ha":232,"x_min":24,"x_max":205,"o":"m 28 640 l 24 646 q 121 756 98 701 q 143 850 143 811 q 127 876 143 876 q 115 873 125 876 q 98 871 106 871 q 47 891 68 871 q 25 940 25 911 q 46 991 25 969 q 102 1014 66 1014 q 175 978 144 1014 q 205 878 205 942 q 166 749 205 806 q 28 640 127 692 z "},"÷":{"ha":762,"x_min":14,"x_max":745,"o":"m 372 478 q 319 500 343 478 q 294 555 294 523 q 317 611 294 589 q 372 633 339 633 q 429 609 407 633 q 450 555 450 585 q 426 500 450 523 q 372 478 401 478 m 14 328 l 14 404 l 745 404 l 745 328 l 14 328 m 372 98 q 317 122 339 98 q 294 176 294 145 q 317 232 294 210 q 372 254 339 254 q 429 230 407 254 q 450 176 450 205 q 428 121 450 143 q 372 98 406 98 z "},"◊":{"ha":686,"x_min":31,"x_max":652,"o":"m 652 517 l 383 0 l 300 0 l 31 517 l 300 1035 l 383 1035 l 652 517 m 569 517 l 342 960 l 115 517 l 342 75 l 569 517 z "},"ÿ":{"ha":796,"x_min":8,"x_max":787,"o":"m 637 999 l 787 999 l 787 989 q 741 975 759 987 q 699 928 722 964 l 454 558 l 454 100 q 469 27 454 44 q 530 9 483 9 l 530 0 l 264 0 l 264 9 q 340 70 340 5 l 339 98 l 339 521 l 94 926 q 8 989 56 991 l 8 999 l 244 999 l 244 989 q 211 964 211 989 q 228 924 211 951 l 429 591 l 650 926 q 663 946 656 932 q 671 966 671 961 q 642 989 671 989 l 637 989 l 637 999 m 530 1069 q 485 1087 503 1069 q 467 1132 467 1105 q 486 1179 467 1162 q 530 1196 505 1196 q 573 1177 555 1196 q 592 1132 592 1158 q 575 1088 592 1107 q 530 1069 557 1069 m 267 1069 q 222 1088 239 1069 q 204 1132 204 1106 q 223 1178 204 1161 q 267 1196 242 1196 q 310 1177 291 1196 q 330 1132 330 1159 q 310 1087 330 1105 q 267 1069 290 1069 z "},"Ÿ":{"ha":796,"x_min":8,"x_max":787,"o":"m 637 999 l 787 999 l 787 989 q 741 975 759 987 q 699 928 722 964 l 454 558 l 454 100 q 469 27 454 44 q 530 9 483 9 l 530 0 l 264 0 l 264 9 q 340 70 340 5 l 339 98 l 339 521 l 94 926 q 8 989 56 991 l 8 999 l 244 999 l 244 989 q 211 964 211 989 q 228 924 211 951 l 429 591 l 650 926 q 663 946 656 932 q 671 966 671 961 q 642 989 671 989 l 637 989 l 637 999 m 530 1069 q 485 1087 503 1069 q 467 1132 467 1105 q 486 1179 467 1162 q 530 1196 505 1196 q 573 1177 555 1196 q 592 1132 592 1158 q 575 1088 592 1107 q 530 1069 557 1069 m 267 1069 q 222 1088 239 1069 q 204 1132 204 1106 q 223 1178 204 1161 q 267 1196 242 1196 q 310 1177 291 1196 q 330 1132 330 1159 q 310 1087 330 1105 q 267 1069 290 1069 z "},"∕":{"ha":232,"x_min":-250,"x_max":472,"o":"m 395 940 l 472 940 l -172 -17 l -250 -17 l 395 940 z "},"€":{"ha":839,"x_min":4,"x_max":791,"o":"m 791 98 q 675 14 739 43 q 517 -16 611 -16 q 370 -3 433 -16 q 243 51 307 9 q 137 154 178 93 q 76 285 96 214 q 52 435 56 356 l 4 435 l 9 464 l 50 464 l 50 478 q 53 539 50 501 l 4 539 l 9 568 l 54 568 q 201 900 79 783 q 515 1018 323 1018 q 606 1008 559 1018 q 733 962 652 999 l 764 871 l 754 871 q 496 990 671 990 q 244 883 330 990 q 158 572 158 776 l 158 568 l 685 568 l 679 539 l 158 539 q 163 464 159 490 l 663 464 l 657 435 l 165 435 q 551 11 209 11 q 781 114 675 11 l 791 98 z "},"‹":{"ha":334,"x_min":37,"x_max":298,"o":"m 297 757 l 164 498 l 298 243 l 277 243 l 37 500 l 273 757 l 297 757 z "},"›":{"ha":334,"x_min":35,"x_max":296,"o":"m 36 243 l 170 501 l 35 757 l 57 757 l 296 500 l 60 243 l 36 243 z "},"ﬁ":{"ha":1055,"x_min":50,"x_max":1008,"o":"m 50 989 l 50 1000 l 682 1000 l 682 882 l 672 882 l 672 888 l 671 890 q 640 949 662 933 q 558 965 618 965 l 236 965 l 236 525 l 536 525 q 591 532 578 525 q 606 558 604 539 l 615 558 l 615 463 l 606 463 q 561 497 606 497 l 236 497 l 236 98 q 253 26 236 42 q 313 9 271 9 l 313 0 l 50 0 l 50 9 q 109 27 96 9 q 121 77 121 45 l 121 899 q 105 971 121 953 q 50 989 90 989 m 1008 1000 l 1008 989 q 964 983 987 991 q 936 958 941 976 q 932 886 932 941 l 932 118 q 937 43 932 58 q 956 19 941 28 q 1008 9 971 9 l 1008 0 l 742 0 l 742 9 q 804 29 792 9 q 817 117 817 48 l 817 876 q 801 972 817 953 q 742 989 785 991 l 742 1000 l 1008 1000 z "},"ﬂ":{"ha":1447,"x_min":50,"x_max":1400,"o":"m 50 989 l 50 1000 l 682 1000 l 682 882 l 672 882 l 672 888 l 671 890 q 640 949 662 933 q 558 965 618 965 l 236 965 l 236 525 l 536 525 q 591 532 578 525 q 606 558 604 539 l 615 558 l 615 463 l 606 463 q 561 497 606 497 l 236 497 l 236 98 q 253 26 236 42 q 313 9 271 9 l 313 0 l 50 0 l 50 9 q 109 27 96 9 q 121 77 121 45 l 121 899 q 105 971 121 953 q 50 989 90 989 m 711 0 l 711 9 q 773 28 760 9 q 786 87 786 46 l 786 905 q 770 974 786 960 q 710 989 754 989 l 710 1000 l 978 1000 l 978 989 q 926 980 944 991 q 905 953 908 969 q 901 899 901 937 l 901 197 q 945 70 901 107 q 1093 33 988 33 l 1215 33 q 1348 80 1308 33 q 1390 240 1387 127 l 1400 240 l 1400 0 l 711 0 z "},"‡":{"ha":525,"x_min":20,"x_max":501,"o":"m 304 650 q 298 389 298 526 q 300 257 298 321 l 374 257 q 452 265 424 257 q 481 286 480 273 q 485 298 483 298 q 501 302 486 302 l 501 200 l 302 200 q 306 135 302 176 l 309 93 q 331 -72 318 -57 q 390 -86 345 -86 l 390 -98 l 193 -98 l 215 200 l 147 200 q 89 195 123 199 q 47 182 55 191 q 40 165 40 174 q 37 157 39 157 q 20 155 35 155 l 20 257 l 215 257 q 224 536 224 390 q 222 644 224 592 l 147 644 q 89 640 123 644 q 47 627 55 635 q 40 610 40 618 q 37 602 39 602 q 20 597 35 599 l 20 700 l 220 700 l 214 800 q 199 903 211 851 q 183 965 187 955 q 169 981 180 975 q 132 986 157 986 l 132 999 l 318 999 l 307 745 l 307 700 l 374 700 q 430 705 396 701 q 472 718 464 709 q 482 734 481 726 q 485 743 483 743 q 501 746 486 747 l 501 644 l 304 650 z "},"·":{"ha":232,"x_min":41,"x_max":189,"o":"m 41 501 q 63 553 41 531 q 115 575 85 575 q 169 554 148 575 q 189 501 189 532 q 168 450 189 472 q 115 428 147 428 q 62 450 83 428 q 41 501 41 472 z "},"∙":{"ha":232,"x_min":41,"x_max":189,"o":"m 41 501 q 63 553 41 531 q 115 575 85 575 q 169 554 148 575 q 189 501 189 532 q 168 450 189 472 q 115 428 147 428 q 62 450 83 428 q 41 501 41 472 z "},"‚":{"ha":232,"x_min":24,"x_max":205,"o":"m 29 -245 l 24 -240 q 119 -134 95 -190 q 143 -36 143 -79 q 129 -9 143 -9 q 114 -12 127 -9 q 103 -15 108 -14 l 98 -15 l 98 -16 q 47 5 70 -16 q 25 54 25 25 q 46 105 25 83 q 102 127 67 127 q 174 93 142 127 q 205 -8 205 58 q 145 -163 205 -108 q 29 -245 85 -219 z "},"„":{"ha":463,"x_min":24,"x_max":437,"o":"m 28 -245 l 24 -240 q 119 -132 95 -189 q 143 -36 143 -75 q 127 -9 143 -9 q 121 -11 126 -9 q 107 -14 112 -13 q 98 -15 102 -15 l 98 -16 q 47 5 68 -16 q 25 54 25 26 q 46 105 25 83 q 102 127 67 127 q 174 93 142 127 q 205 -8 205 58 q 28 -245 205 -157 m 260 -245 l 254 -240 q 350 -134 326 -190 q 374 -36 374 -79 q 359 -9 374 -9 q 353 -11 358 -9 q 339 -14 344 -13 q 330 -15 334 -15 l 330 -16 q 279 5 300 -16 q 257 54 257 26 q 278 105 257 83 q 334 127 299 127 q 406 92 375 127 q 437 -8 437 57 q 260 -245 437 -157 z "},"‰":{"ha":1601,"x_min":7,"x_max":1594,"o":"m 212 481 q 67 545 127 481 q 7 726 7 608 q 71 937 7 857 q 232 1018 134 1018 q 379 954 322 1018 q 436 770 436 890 q 372 561 436 641 q 212 481 309 481 m 235 509 q 320 558 284 509 q 355 705 355 608 q 312 918 355 845 q 210 990 269 990 q 123 944 161 990 q 86 790 86 898 q 130 586 86 664 q 235 509 174 509 m 207 0 l 860 1015 l 904 999 l 253 -17 l 207 0 m 885 -7 q 737 57 796 -7 q 677 237 677 121 q 741 448 677 367 q 904 529 805 529 q 1051 464 995 529 q 1107 281 1107 399 q 1045 75 1107 157 q 885 -7 984 -7 m 907 20 q 992 70 956 20 q 1028 216 1028 119 q 986 425 1028 349 q 880 501 945 501 q 795 455 833 501 q 758 301 758 410 q 803 95 758 170 q 907 20 848 20 m 1372 -5 q 1224 59 1283 -5 q 1165 237 1165 123 q 1228 447 1165 366 q 1392 529 1291 529 q 1539 464 1483 529 q 1594 282 1594 398 q 1532 75 1594 155 q 1372 -5 1470 -5 m 1394 21 q 1478 68 1442 21 q 1515 216 1515 115 q 1474 426 1515 351 q 1368 501 1433 501 q 1283 455 1320 501 q 1246 301 1246 410 q 1288 101 1246 180 q 1394 21 1330 21 z "},"Â":{"ha":956,"x_min":7,"x_max":949,"o":"m 581 460 l 289 460 l 138 82 q 122 32 122 41 q 155 9 122 9 l 155 0 l 7 0 l 7 9 q 57 24 37 9 q 102 100 77 39 l 464 1014 l 481 1014 l 838 131 q 865 67 838 124 q 949 9 892 9 l 949 0 l 715 0 l 715 9 q 747 35 747 9 q 732 89 747 52 q 727 98 729 92 q 725 104 726 104 l 581 460 m 298 488 l 568 488 l 433 828 l 298 488 m 515 1278 l 694 1068 l 663 1068 l 479 1198 l 294 1068 l 262 1068 l 441 1278 l 515 1278 z "},"Ê":{"ha":753,"x_min":54,"x_max":737,"o":"m 54 987 l 54 999 l 682 999 l 682 861 l 672 861 q 638 951 652 938 q 570 965 624 965 l 240 965 l 240 517 l 546 517 q 604 525 591 517 q 616 550 616 534 l 627 550 l 627 456 l 616 456 q 601 482 613 475 q 554 489 588 489 l 240 489 l 240 180 q 253 80 240 111 q 294 41 266 49 q 379 33 322 33 l 555 33 q 663 39 640 33 q 703 62 686 45 q 728 138 719 79 l 737 138 l 737 0 l 54 0 l 54 9 q 107 23 89 12 q 125 81 125 34 l 125 888 q 115 965 125 943 q 54 987 106 987 m 414 1278 l 593 1068 l 562 1068 l 378 1198 l 193 1068 l 161 1068 l 340 1278 l 414 1278 z "},"Á":{"ha":956,"x_min":7,"x_max":949,"o":"m 581 460 l 289 460 l 138 82 q 122 32 122 41 q 155 9 122 9 l 155 0 l 7 0 l 7 9 q 57 24 37 9 q 102 100 77 39 l 464 1014 l 481 1014 l 838 131 q 865 67 838 124 q 949 9 892 9 l 949 0 l 715 0 l 715 9 q 747 35 747 9 q 732 89 747 52 q 727 98 729 92 q 725 104 726 104 l 581 460 m 298 488 l 568 488 l 433 828 l 298 488 m 486 1278 l 608 1278 l 403 1068 l 371 1068 l 486 1278 z "},"Ë":{"ha":753,"x_min":54,"x_max":737,"o":"m 54 987 l 54 999 l 682 999 l 682 861 l 672 861 q 638 951 652 938 q 570 965 624 965 l 240 965 l 240 517 l 546 517 q 604 525 591 517 q 616 550 616 534 l 627 550 l 627 456 l 616 456 q 601 482 613 475 q 554 489 588 489 l 240 489 l 240 180 q 253 80 240 111 q 294 41 266 49 q 379 33 322 33 l 555 33 q 663 39 640 33 q 703 62 686 45 q 728 138 719 79 l 737 138 l 737 0 l 54 0 l 54 9 q 107 23 89 12 q 125 81 125 34 l 125 888 q 115 965 125 943 q 54 987 106 987 m 509 1069 q 464 1087 482 1069 q 446 1132 446 1105 q 465 1179 446 1162 q 509 1196 484 1196 q 552 1177 534 1196 q 571 1132 571 1158 q 554 1088 571 1107 q 509 1069 536 1069 m 245 1069 q 201 1088 218 1069 q 183 1132 183 1106 q 202 1178 183 1161 q 245 1196 221 1196 q 289 1177 270 1196 q 309 1132 309 1159 q 289 1087 309 1105 q 245 1069 269 1069 z "},"È":{"ha":753,"x_min":54,"x_max":737,"o":"m 54 987 l 54 999 l 682 999 l 682 861 l 672 861 q 638 951 652 938 q 570 965 624 965 l 240 965 l 240 517 l 546 517 q 604 525 591 517 q 616 550 616 534 l 627 550 l 627 456 l 616 456 q 601 482 613 475 q 554 489 588 489 l 240 489 l 240 180 q 253 80 240 111 q 294 41 266 49 q 379 33 322 33 l 555 33 q 663 39 640 33 q 703 62 686 45 q 728 138 719 79 l 737 138 l 737 0 l 54 0 l 54 9 q 107 23 89 12 q 125 81 125 34 l 125 888 q 115 965 125 943 q 54 987 106 987 m 248 1278 l 370 1278 l 485 1068 l 453 1068 l 248 1278 z "},"Í":{"ha":361,"x_min":47,"x_max":314,"o":"m 314 999 l 314 989 q 270 983 294 991 q 242 959 246 975 q 237 885 237 943 l 237 118 q 242 42 237 56 q 262 19 248 28 q 314 9 277 9 l 314 0 l 47 0 l 47 9 q 110 29 98 9 q 122 117 122 48 l 122 876 q 109 969 122 947 q 47 989 95 991 l 47 999 l 314 999 m 189 1278 l 311 1278 l 105 1068 l 73 1068 l 189 1278 z "},"Î":{"ha":361,"x_min":-35,"x_max":397,"o":"m 314 999 l 314 989 q 270 983 294 991 q 242 959 246 975 q 237 885 237 943 l 237 118 q 242 42 237 56 q 262 19 248 28 q 314 9 277 9 l 314 0 l 47 0 l 47 9 q 110 29 98 9 q 122 117 122 48 l 122 876 q 109 969 122 947 q 47 989 95 991 l 47 999 l 314 999 m 218 1278 l 397 1068 l 366 1068 l 182 1198 l -3 1068 l -35 1068 l 144 1278 l 218 1278 z "},"Ï":{"ha":361,"x_min":47,"x_max":435,"o":"m 374 999 l 374 989 q 331 983 355 991 q 302 959 307 975 q 298 885 298 943 l 298 118 q 303 42 298 56 q 322 19 308 28 q 374 9 337 9 l 374 0 l 108 0 l 108 9 q 170 29 158 9 q 182 117 182 48 l 182 876 q 169 969 182 947 q 108 989 155 991 l 108 999 l 374 999 m 373 1069 q 328 1087 347 1069 q 310 1132 310 1105 q 329 1179 310 1162 q 373 1196 349 1196 q 417 1177 398 1196 q 435 1132 435 1158 q 418 1088 435 1107 q 373 1069 401 1069 m 110 1069 q 65 1088 83 1069 q 47 1132 47 1106 q 66 1178 47 1161 q 110 1196 85 1196 q 154 1177 134 1196 q 173 1132 173 1159 q 153 1087 173 1105 q 110 1069 134 1069 z "},"Ì":{"ha":361,"x_min":47,"x_max":314,"o":"m 314 999 l 314 989 q 270 983 294 991 q 242 959 246 975 q 237 885 237 943 l 237 118 q 242 42 237 56 q 262 19 248 28 q 314 9 277 9 l 314 0 l 47 0 l 47 9 q 110 29 98 9 q 122 117 122 48 l 122 876 q 109 969 122 947 q 47 989 95 991 l 47 999 l 314 999 m 52 1278 l 174 1278 l 289 1068 l 257 1068 l 52 1278 z "},"Ó":{"ha":1129,"x_min":46,"x_max":1083,"o":"m 606 1014 q 949 886 816 1014 q 1083 567 1083 758 q 928 153 1083 321 q 518 -16 774 -16 q 178 120 311 -16 q 46 446 46 256 q 110 709 46 574 q 302 929 174 844 q 606 1014 430 1014 m 602 37 q 805 93 705 37 q 963 245 905 148 q 1021 444 1021 342 q 943 708 1021 589 q 742 894 865 827 q 513 961 618 961 q 243 849 364 961 q 122 571 122 737 q 270 198 122 359 q 602 37 418 37 m 572 1278 l 694 1278 l 489 1068 l 457 1068 l 572 1278 z "},"Ô":{"ha":1129,"x_min":46,"x_max":1083,"o":"m 606 1014 q 949 886 816 1014 q 1083 567 1083 758 q 928 153 1083 321 q 518 -16 774 -16 q 178 120 311 -16 q 46 446 46 256 q 110 709 46 574 q 302 929 174 844 q 606 1014 430 1014 m 602 37 q 805 93 705 37 q 963 245 905 148 q 1021 444 1021 342 q 943 708 1021 589 q 742 894 865 827 q 513 961 618 961 q 243 849 364 961 q 122 571 122 737 q 270 198 122 359 q 602 37 418 37 m 601 1278 l 780 1068 l 749 1068 l 565 1198 l 380 1068 l 349 1068 l 528 1278 l 601 1278 z "},"":{"ha":486,"x_min":74,"x_max":414,"o":"m 243 629 q 365 579 316 629 q 414 460 414 529 q 365 340 414 391 q 243 289 315 289 q 123 340 173 289 q 74 460 74 391 q 122 577 74 526 q 243 629 170 629 z "},"Ò":{"ha":1129,"x_min":46,"x_max":1083,"o":"m 606 1014 q 949 886 816 1014 q 1083 567 1083 758 q 928 153 1083 321 q 518 -16 774 -16 q 178 120 311 -16 q 46 446 46 256 q 110 709 46 574 q 302 929 174 844 q 606 1014 430 1014 m 602 37 q 805 93 705 37 q 963 245 905 148 q 1021 444 1021 342 q 943 708 1021 589 q 742 894 865 827 q 513 961 618 961 q 243 849 364 961 q 122 571 122 737 q 270 198 122 359 q 602 37 418 37 m 435 1278 l 557 1278 l 673 1068 l 641 1068 l 435 1278 z "},"Ú":{"ha":1042,"x_min":56,"x_max":985,"o":"m 985 0 l 796 0 l 796 154 q 452 -7 652 -7 q 216 77 303 -7 q 129 307 129 160 l 129 905 q 116 974 129 960 q 56 989 103 989 l 56 999 l 321 999 l 321 989 q 261 976 279 989 q 244 913 244 962 l 244 364 q 325 118 244 192 q 509 45 406 45 q 796 191 671 45 l 796 867 q 781 972 796 956 q 732 989 765 989 l 722 989 l 722 999 l 985 999 l 985 989 q 923 972 936 986 q 911 921 911 959 l 911 107 q 916 44 911 59 q 935 19 920 29 q 985 9 949 9 l 985 0 m 529 1278 l 651 1278 l 446 1068 l 414 1068 l 529 1278 z "},"Û":{"ha":1042,"x_min":56,"x_max":985,"o":"m 985 0 l 796 0 l 796 154 q 452 -7 652 -7 q 216 77 303 -7 q 129 307 129 160 l 129 905 q 116 974 129 960 q 56 989 103 989 l 56 999 l 321 999 l 321 989 q 261 976 279 989 q 244 913 244 962 l 244 364 q 325 118 244 192 q 509 45 406 45 q 796 191 671 45 l 796 867 q 781 972 796 956 q 732 989 765 989 l 722 989 l 722 999 l 985 999 l 985 989 q 923 972 936 986 q 911 921 911 959 l 911 107 q 916 44 911 59 q 935 19 920 29 q 985 9 949 9 l 985 0 m 558 1278 l 737 1068 l 707 1068 l 522 1198 l 338 1068 l 306 1068 l 485 1278 l 558 1278 z "},"Ù":{"ha":1042,"x_min":56,"x_max":985,"o":"m 985 0 l 796 0 l 796 154 q 452 -7 652 -7 q 216 77 303 -7 q 129 307 129 160 l 129 905 q 116 974 129 960 q 56 989 103 989 l 56 999 l 321 999 l 321 989 q 261 976 279 989 q 244 913 244 962 l 244 364 q 325 118 244 192 q 509 45 406 45 q 796 191 671 45 l 796 867 q 781 972 796 956 q 732 989 765 989 l 722 989 l 722 999 l 985 999 l 985 989 q 923 972 936 986 q 911 921 911 959 l 911 107 q 916 44 911 59 q 935 19 920 29 q 985 9 949 9 l 985 0 m 392 1278 l 514 1278 l 629 1068 l 597 1068 l 392 1278 z "},"ı":{"ha":361,"x_min":47,"x_max":314,"o":"m 314 999 l 314 989 q 270 983 294 991 q 242 959 246 975 q 237 885 237 943 l 237 118 q 242 42 237 56 q 262 19 248 28 q 314 9 277 9 l 314 0 l 47 0 l 47 9 q 110 29 98 9 q 122 117 122 48 l 122 876 q 109 969 122 947 q 47 989 95 991 l 47 999 l 314 999 z "},"ˆ":{"ha":463,"x_min":16,"x_max":447,"o":"m 268 1278 l 447 1068 l 416 1068 l 232 1198 l 47 1068 l 16 1068 l 195 1278 l 268 1278 z "},"˜":{"ha":463,"x_min":-1,"x_max":467,"o":"m 437 1214 l 465 1214 q 422 1111 467 1152 q 317 1069 378 1069 q 217 1097 271 1069 q 143 1134 163 1125 q 101 1143 123 1143 q 52 1125 73 1143 q 29 1069 31 1106 l 0 1069 q 42 1175 -1 1137 q 142 1214 85 1214 q 182 1208 160 1214 q 266 1171 205 1202 q 357 1140 328 1140 q 437 1214 420 1140 z "},"ˉ":{"ha":463,"x_min":-33,"x_max":522,"o":"m 522 1206 l 522 1156 l -33 1156 l -33 1206 l 522 1206 z "},"˘":{"ha":463,"x_min":29,"x_max":435,"o":"m 406 1265 l 435 1265 q 369 1121 427 1173 q 232 1069 310 1069 q 95 1123 153 1069 q 29 1265 36 1176 l 58 1265 q 117 1181 72 1211 q 232 1150 163 1150 q 349 1183 303 1150 q 406 1265 394 1216 z "},"˙":{"ha":463,"x_min":170,"x_max":294,"o":"m 232 1069 q 188 1087 205 1069 q 170 1132 170 1105 q 189 1179 170 1162 q 232 1196 208 1196 q 276 1177 258 1196 q 294 1132 294 1158 q 276 1088 294 1107 q 232 1069 258 1069 z "},"˚":{"ha":463,"x_min":121,"x_max":342,"o":"m 231 1068 q 153 1100 186 1068 q 121 1179 121 1133 q 153 1257 121 1224 q 231 1289 184 1289 q 309 1258 276 1289 q 342 1179 342 1226 q 311 1101 342 1134 q 231 1068 279 1068 m 231 1258 q 175 1235 199 1258 q 151 1179 151 1212 q 175 1124 151 1147 q 231 1100 199 1100 q 288 1123 265 1100 q 311 1179 311 1146 q 288 1236 311 1213 q 231 1258 264 1258 z "},"¸":{"ha":463,"x_min":110,"x_max":353,"o":"m 290 14 l 254 -52 q 353 -158 353 -83 q 285 -264 353 -223 q 110 -300 217 -306 l 110 -272 q 250 -239 218 -269 q 282 -183 282 -210 q 175 -111 282 -118 q 254 14 243 -14 l 290 14 z "},"˝":{"ha":463,"x_min":46,"x_max":475,"o":"m 161 1278 l 283 1278 l 78 1068 l 46 1068 l 161 1278 m 353 1278 l 475 1278 l 269 1068 l 237 1068 l 353 1278 z "},"˛":{"ha":463,"x_min":113,"x_max":347,"o":"m 216 8 l 252 8 q 197 -61 215 -29 q 179 -136 179 -92 q 212 -231 179 -197 q 285 -265 244 -265 q 336 -254 305 -265 l 347 -277 q 249 -304 294 -304 q 146 -263 180 -304 q 113 -171 113 -221 q 137 -86 113 -125 q 216 8 162 -46 z "},"ˇ":{"ha":463,"x_min":16,"x_max":447,"o":"m 195 1068 l 16 1278 l 46 1278 l 231 1147 l 415 1278 l 447 1278 l 268 1068 l 195 1068 z "},"Ł":{"ha":753,"x_min":4,"x_max":705,"o":"m 17 0 l 17 8 q 78 28 66 8 q 90 87 90 47 l 90 372 l 4 294 l 4 330 l 90 408 l 90 905 q 79 968 90 949 q 16 989 68 987 l 16 999 l 283 999 l 283 989 q 232 980 248 989 q 211 957 216 971 q 205 899 205 942 l 205 513 l 447 728 l 447 692 l 205 476 l 205 197 q 249 70 205 107 q 399 33 293 33 l 521 33 q 649 77 608 33 q 696 240 690 120 l 705 240 l 705 0 l 17 0 z "},"ł":{"ha":753,"x_min":4,"x_max":705,"o":"m 17 0 l 17 8 q 78 28 66 8 q 90 87 90 47 l 90 372 l 4 294 l 4 330 l 90 408 l 90 905 q 79 968 90 949 q 16 989 68 987 l 16 999 l 283 999 l 283 989 q 232 980 248 989 q 211 957 216 971 q 205 899 205 942 l 205 513 l 447 728 l 447 692 l 205 476 l 205 197 q 249 70 205 107 q 399 33 293 33 l 521 33 q 649 77 608 33 q 696 240 690 120 l 705 240 l 705 0 l 17 0 z "},"Š":{"ha":665,"x_min":35,"x_max":635,"o":"m 533 986 l 581 861 l 572 860 q 535 900 572 861 q 449 961 497 939 q 339 982 400 982 q 177 923 237 982 q 117 782 117 865 q 145 686 117 727 q 262 610 173 645 q 473 532 416 558 q 582 444 530 506 q 635 283 635 381 q 625 206 635 243 q 595 135 616 169 q 544 72 574 100 q 484 30 515 44 q 388 7 454 15 q 301 0 322 0 l 35 0 l 35 290 l 45 290 q 113 89 46 146 q 319 32 179 32 q 513 92 447 32 q 579 237 579 153 q 556 325 579 289 q 492 389 533 361 q 335 456 450 416 q 174 526 220 496 q 96 617 127 556 q 65 741 65 677 q 145 935 65 857 q 354 1014 224 1014 q 463 1002 404 1014 q 528 987 521 991 q 533 986 530 986 m 296 1068 l 117 1278 l 148 1278 l 332 1147 l 517 1278 l 549 1278 l 370 1068 l 296 1068 z "},"š":{"ha":665,"x_min":35,"x_max":635,"o":"m 533 986 l 581 861 l 572 860 q 535 900 572 861 q 449 961 497 939 q 339 982 400 982 q 177 923 237 982 q 117 782 117 865 q 145 686 117 727 q 262 610 173 645 q 473 532 416 558 q 582 444 530 506 q 635 283 635 381 q 625 206 635 243 q 595 135 616 169 q 544 72 574 100 q 484 30 515 44 q 388 7 454 15 q 301 0 322 0 l 35 0 l 35 290 l 45 290 q 113 89 46 146 q 319 32 179 32 q 513 92 447 32 q 579 237 579 153 q 556 325 579 289 q 492 389 533 361 q 335 456 450 416 q 174 526 220 496 q 96 617 127 556 q 65 741 65 677 q 145 935 65 857 q 354 1014 224 1014 q 463 1002 404 1014 q 528 987 521 991 q 533 986 530 986 m 296 1068 l 117 1278 l 148 1278 l 332 1147 l 517 1278 l 549 1278 l 370 1068 l 296 1068 z "},"Ž":{"ha":983,"x_min":9,"x_max":961,"o":"m 957 157 l 957 0 l 9 0 l 785 961 l 265 961 q 177 944 201 961 q 143 863 153 928 l 134 863 l 139 999 l 961 999 l 183 37 l 846 37 q 923 61 903 37 q 947 157 943 85 l 957 157 m 456 1068 l 277 1278 l 307 1278 l 492 1147 l 676 1278 l 708 1278 l 529 1068 l 456 1068 z "},"ž":{"ha":983,"x_min":9,"x_max":961,"o":"m 957 157 l 957 0 l 9 0 l 785 961 l 265 961 q 177 944 201 961 q 143 863 153 928 l 134 863 l 139 999 l 961 999 l 183 37 l 846 37 q 923 61 903 37 q 947 157 943 85 l 957 157 m 456 1068 l 277 1278 l 307 1278 l 492 1147 l 676 1278 l 708 1278 l 529 1068 l 456 1068 z "},"¦":{"ha":278,"x_min":90,"x_max":187,"o":"m 90 936 l 187 936 l 187 393 l 90 393 l 90 936 m 90 297 l 187 297 l 187 -245 l 90 -245 l 90 297 z "},"Ð":{"ha":1173,"x_min":36,"x_max":1128,"o":"m 125 490 l 36 490 l 36 518 l 125 518 l 125 873 q 119 958 125 943 q 100 980 114 973 q 54 989 86 987 l 54 999 l 511 999 q 788 971 686 999 q 964 885 889 944 q 1084 734 1040 826 q 1128 529 1128 642 q 1082 314 1128 420 q 958 133 1036 209 q 792 28 879 56 q 522 0 705 0 l 53 0 l 53 9 q 114 36 104 13 q 125 146 125 59 l 125 490 m 600 490 l 240 490 l 240 203 q 265 94 240 130 q 349 42 290 58 q 510 26 409 26 q 906 173 795 26 q 1018 485 1018 319 q 862 831 1018 685 q 393 978 707 978 l 240 978 l 240 518 l 600 518 l 600 490 z "},"ð":{"ha":1173,"x_min":36,"x_max":1128,"o":"m 125 490 l 36 490 l 36 518 l 125 518 l 125 873 q 119 958 125 943 q 100 980 114 973 q 54 989 86 987 l 54 999 l 511 999 q 788 971 686 999 q 964 885 889 944 q 1084 734 1040 826 q 1128 529 1128 642 q 1082 314 1128 420 q 958 133 1036 209 q 792 28 879 56 q 522 0 705 0 l 53 0 l 53 9 q 114 36 104 13 q 125 146 125 59 l 125 490 m 600 490 l 240 490 l 240 203 q 265 94 240 130 q 349 42 290 58 q 510 26 409 26 q 906 173 795 26 q 1018 485 1018 319 q 862 831 1018 685 q 393 978 707 978 l 240 978 l 240 518 l 600 518 l 600 490 z "},"Ý":{"ha":796,"x_min":8,"x_max":787,"o":"m 637 999 l 787 999 l 787 989 q 741 975 759 987 q 699 928 722 964 l 454 558 l 454 100 q 469 27 454 44 q 530 9 483 9 l 530 0 l 264 0 l 264 9 q 340 70 340 5 l 339 98 l 339 521 l 94 926 q 8 989 56 991 l 8 999 l 244 999 l 244 989 q 211 964 211 989 q 228 924 211 951 l 429 591 l 650 926 q 663 946 656 932 q 671 966 671 961 q 642 989 671 989 l 637 989 l 637 999 m 406 1278 l 528 1278 l 322 1068 l 290 1068 l 406 1278 z "},"ý":{"ha":796,"x_min":8,"x_max":787,"o":"m 637 999 l 787 999 l 787 989 q 741 975 759 987 q 699 928 722 964 l 454 558 l 454 100 q 469 27 454 44 q 530 9 483 9 l 530 0 l 264 0 l 264 9 q 340 70 340 5 l 339 98 l 339 521 l 94 926 q 8 989 56 991 l 8 999 l 244 999 l 244 989 q 211 964 211 989 q 228 924 211 951 l 429 591 l 650 926 q 663 946 656 932 q 671 966 671 961 q 642 989 671 989 l 637 989 l 637 999 m 406 1278 l 528 1278 l 322 1068 l 290 1068 l 406 1278 z "},"Þ":{"ha":737,"x_min":56,"x_max":693,"o":"m 314 999 l 314 989 q 259 974 276 987 q 241 904 241 961 l 241 760 l 378 760 q 602 715 511 760 q 693 541 693 671 q 665 425 693 481 q 581 319 637 368 q 470 255 524 271 q 322 239 416 239 l 241 239 l 241 96 q 256 27 241 45 q 314 9 271 9 l 314 0 l 56 0 l 56 9 q 110 24 94 9 q 126 104 126 38 l 126 899 q 115 967 126 948 q 56 989 103 987 l 56 999 l 314 999 m 241 733 l 241 265 l 346 265 q 450 280 390 265 q 549 349 510 294 q 589 478 589 403 q 560 603 589 540 q 478 700 531 667 q 323 733 425 733 l 241 733 z "},"þ":{"ha":737,"x_min":56,"x_max":693,"o":"m 314 999 l 314 989 q 259 974 276 987 q 241 904 241 961 l 241 760 l 378 760 q 602 715 511 760 q 693 541 693 671 q 665 425 693 481 q 581 319 637 368 q 470 255 524 271 q 322 239 416 239 l 241 239 l 241 96 q 256 27 241 45 q 314 9 271 9 l 314 0 l 56 0 l 56 9 q 110 24 94 9 q 126 104 126 38 l 126 899 q 115 967 126 948 q 56 989 103 987 l 56 999 l 314 999 m 241 733 l 241 265 l 346 265 q 450 280 390 265 q 549 349 510 294 q 589 478 589 403 q 560 603 589 540 q 478 700 531 667 q 323 733 425 733 l 241 733 z "},"−":{"ha":762,"x_min":16,"x_max":746,"o":"m 746 408 l 746 332 l 16 332 l 16 408 l 746 408 z "},"×":{"ha":762,"x_min":90,"x_max":669,"o":"m 93 606 l 146 659 l 378 428 l 610 661 l 664 607 l 431 374 l 669 135 l 616 82 l 378 321 l 144 87 l 90 142 l 323 374 l 93 606 z "},"¹":{"ha":216,"x_min":20,"x_max":201,"o":"m 22 958 l 135 1017 l 149 1017 l 150 539 q 156 509 150 515 q 186 503 162 503 l 201 503 l 201 489 l 20 489 l 20 503 q 65 508 58 503 q 72 543 72 514 l 72 926 l 71 947 q 61 956 71 956 q 41 950 56 956 q 24 942 26 945 l 22 958 z "},"²":{"ha":449,"x_min":4,"x_max":446,"o":"m 446 578 l 415 489 l 20 489 l 18 498 q 104 572 73 547 q 302 865 302 730 q 268 957 302 925 q 186 989 233 989 q 100 961 144 989 q 32 893 56 933 l 4 905 q 82 985 38 954 q 208 1017 126 1017 q 340 974 291 1017 q 390 873 390 931 q 332 741 390 812 q 114 546 275 670 l 114 543 l 347 543 q 387 546 373 543 q 424 578 401 549 l 446 578 z "},"³":{"ha":463,"x_min":21,"x_max":421,"o":"m 49 900 l 72 975 q 228 1017 144 1017 q 358 985 319 1017 q 396 916 396 954 q 285 796 396 846 l 285 793 q 387 740 352 781 q 421 648 421 699 q 358 529 421 575 q 211 482 295 482 q 21 553 108 482 l 21 583 q 129 521 93 533 q 197 509 165 509 q 293 541 250 509 q 336 632 336 573 q 298 719 336 686 q 192 751 259 751 q 140 746 162 751 l 140 770 q 146 772 140 771 q 232 799 153 772 q 311 900 311 825 q 283 968 311 943 q 214 993 255 993 q 112 948 153 993 q 71 900 71 904 l 49 900 z "},"½":{"ha":909,"x_min":89,"x_max":885,"o":"m 639 1018 l 717 1018 l 183 -17 l 106 -17 l 639 1018 m 92 958 l 204 1017 l 220 1015 l 220 539 q 224 509 220 515 q 256 503 229 503 l 271 503 l 271 489 l 89 489 l 89 503 q 133 508 123 503 q 142 543 142 513 l 142 926 q 131 956 142 956 q 110 950 125 956 q 93 942 95 945 l 92 958 m 885 89 l 854 0 l 458 0 l 457 9 q 547 86 515 60 q 742 376 742 243 q 707 468 742 437 q 625 500 672 500 q 539 472 583 500 q 471 404 495 444 l 443 416 q 523 498 478 468 q 647 528 567 528 q 780 485 730 528 q 829 385 829 442 q 775 257 829 327 q 553 57 721 187 l 553 54 l 786 54 q 826 58 812 54 q 863 89 840 61 l 885 89 z "},"¼":{"ha":909,"x_min":89,"x_max":851,"o":"m 717 1018 l 183 -17 l 106 -17 l 639 1018 l 717 1018 m 271 489 l 89 489 l 89 503 q 133 508 123 503 q 142 543 142 513 l 142 926 q 131 956 142 956 q 110 950 125 956 q 93 942 95 945 l 92 958 l 204 1017 l 220 1015 l 220 539 q 224 509 220 515 q 256 503 229 503 l 271 503 l 271 489 m 851 178 l 760 178 l 760 61 q 765 24 760 33 q 793 16 771 16 l 803 16 l 803 0 l 636 0 l 636 16 l 646 16 q 677 25 671 16 q 684 60 684 35 l 684 178 l 439 178 l 715 509 l 760 509 l 760 207 l 814 207 q 840 231 834 207 l 851 231 l 851 178 m 682 205 l 684 429 q 493 205 494 205 l 682 205 z "},"¾":{"ha":909,"x_min":21,"x_max":851,"o":"m 714 1018 l 791 1018 l 260 -17 l 180 -17 l 714 1018 m 49 900 l 72 975 q 228 1017 144 1017 q 358 985 319 1017 q 396 916 396 954 q 285 796 396 846 l 285 793 q 387 740 352 781 q 421 648 421 699 q 358 529 421 575 q 211 482 295 482 q 21 553 108 482 l 21 583 q 129 521 93 533 q 197 509 165 509 q 293 541 250 509 q 336 632 336 573 q 298 719 336 686 q 192 751 259 751 q 140 746 162 751 l 140 770 q 146 772 140 771 q 232 799 153 772 q 311 900 311 825 q 283 968 311 943 q 214 993 255 993 q 112 948 153 993 q 71 900 71 904 l 49 900 m 851 178 l 760 178 l 760 61 q 765 24 760 33 q 793 16 771 16 l 803 16 l 803 0 l 636 0 l 636 16 l 646 16 q 677 25 671 16 q 684 60 684 35 l 684 178 l 439 178 l 715 509 l 760 509 l 760 207 l 814 207 q 840 229 836 207 l 851 229 l 851 178 m 682 205 l 684 429 q 493 205 494 205 l 682 205 z "},"­":{"ha":762,"x_min":16,"x_max":746,"o":"m 746 408 l 746 332 l 16 332 l 16 408 l 746 408 z "},"¯":{"ha":694,"x_min":-8,"x_max":703,"o":"m -8 1100 l -8 1171 l 703 1171 l 703 1100 l -8 1100 z "},"":{"ha":443,"x_min":14,"x_max":427,"o":"m 427 668 l 335 668 l 335 551 q 341 515 335 526 q 370 504 347 504 l 378 504 l 378 489 l 212 489 l 212 504 l 221 504 q 251 511 243 504 q 258 550 258 519 l 258 668 l 14 668 l 290 997 l 336 997 l 336 696 l 389 696 q 403 702 395 696 q 413 711 411 709 q 415 721 415 713 l 427 721 l 427 668 m 258 694 l 260 918 q 68 694 258 918 l 258 694 z "},"¤":{"ha":555,"x_min":3,"x_max":545,"o":"m 110 439 l 5 545 l 40 579 l 143 473 q 275 521 201 521 q 401 479 345 521 l 504 581 l 539 546 l 437 444 q 484 312 484 386 q 439 183 484 239 l 545 74 l 510 40 l 408 151 q 275 104 349 104 q 143 151 202 104 l 37 46 l 3 81 l 109 189 q 66 313 66 242 q 110 439 66 382 m 429 313 q 384 420 429 375 q 276 465 339 465 q 168 421 214 465 q 122 313 122 377 q 167 204 122 248 q 275 160 212 160 q 384 205 339 160 q 429 313 429 250 z "}}}
